<?xml version="1.0" encoding="utf-8"?>
<!-- Generator: Adobe Illustrator 24.0.0, SVG Export Plug-In . SVG Version: 6.00 Build 0)  -->
<!DOCTYPE svg PUBLIC "-//W3C//DTD SVG 1.1//EN" "http://www.w3.org/Graphics/SVG/1.1/DTD/svg11.dtd" [
	<!ENTITY ns_extend "http://ns.adobe.com/Extensibility/1.0/">
	<!ENTITY ns_ai "http://ns.adobe.com/AdobeIllustrator/10.0/">
	<!ENTITY ns_graphs "http://ns.adobe.com/Graphs/1.0/">
	<!ENTITY ns_vars "http://ns.adobe.com/Variables/1.0/">
	<!ENTITY ns_imrep "http://ns.adobe.com/ImageReplacement/1.0/">
	<!ENTITY ns_sfw "http://ns.adobe.com/SaveForWeb/1.0/">
	<!ENTITY ns_custom "http://ns.adobe.com/GenericCustomNamespace/1.0/">
	<!ENTITY ns_adobe_xpath "http://ns.adobe.com/XPath/1.0/">
]>
<svg version="1.1" id="Layer_1" xmlns:x="&ns_extend;" xmlns:i="&ns_ai;" xmlns:graph="&ns_graphs;"
	 xmlns="http://www.w3.org/2000/svg" xmlns:xlink="http://www.w3.org/1999/xlink" x="0px" y="0px" viewBox="0 0 538 380"
	 style="enable-background:new 0 0 538 380;" xml:space="preserve">
<style type="text/css">
	.st0{fill-rule:evenodd;clip-rule:evenodd;fill:#FFFFFF;}
	.st1{fill:#F4DBDA;}
	.st2{fill:#1D1D1B;}
	.st3{fill:#1D1D1B;stroke:#1D1D1B;stroke-width:0.75;stroke-linecap:round;stroke-linejoin:round;stroke-miterlimit:10;}
	.st4{fill:#9D4747;}
	.st5{fill:#4F5151;}
	.st6{fill:none;stroke:#1D1D1B;stroke-width:0.75;stroke-linecap:round;stroke-linejoin:round;stroke-miterlimit:10;}
	.st7{fill:#E2EDF4;}
	.st8{fill:#3D3D3F;}
	.st9{fill:#FA5C62;}
	.st10{fill:#7FAFB5;}
	.st11{fill:#9FD0D9;}
	.st12{fill:#B4D3F3;}
	.st13{fill:#8E8E8E;}
	.st14{fill:#FFD367;}
	.st15{fill:#F5FAFF;}
	.st16{fill:#6074D7;}
	.st17{stroke:#1D1D1B;stroke-width:0.75;stroke-linecap:round;stroke-linejoin:round;stroke-miterlimit:10;}
	.st18{fill:#61676A;}
	.st19{fill:none;stroke:#1D1D1B;stroke-miterlimit:10;}
	.st20{fill:#FFFFFF;}
</style>
<metadata>
	<sfw  xmlns="&ns_sfw;">
		<slices></slices>
		<sliceSourceBounds  bottomLeftOrigin="true" height="380" width="538.4" x="0" y="0"></sliceSourceBounds>
		<optimizationSettings>
			<targetSettings  fileFormat="PNG24Format" targetSettingsID="0">
				<PNG24Format  filtered="false" interlaced="false" matteColor="#FFFFFF" noMatteColor="false" transparency="true">
					</PNG24Format>
			</targetSettings>
		</optimizationSettings>
	</sfw>
</metadata>
<path class="st0" d="M0,0h538v380H0V0z"/>
<g>
	<path class="st1" d="M538.4,315c0,0-241.7-52.6-537.4-94v155h537.4V315z"/>
	<g>
		
			<ellipse transform="matrix(0.1315 -0.9913 0.9913 0.1315 -75.3986 523.9921)" class="st2" cx="261.4" cy="305" rx="22.5" ry="209.4"/>
		<g>
			<path class="st3" d="M61.7,235.3l1.4,17.5h17.6l0.6-16.5l3.2,0.2v4.9l7.3,8.4c0,0-2.6,1-2.6,3.9c0,2.8,2.6,3.9,2.6,3.9H65.2
				l0.2,7.7l36.6,1.4l7.2-30.4l-47.5-3.2V235.3z"/>
			<path class="st4" d="M123.1,239.4c0,0-3.3-5.8-9.7-5.2c-6.4,0.6-11,9-12.3,18.3c-1.3,9.3,0,30.9,0,30.9h10.7L123.1,239.4z"/>
			<g>
				<path class="st5" d="M125.1,240h17.4c11.7,0,21.3,12.7,21.3,28.3c0,15.6-9.5,28.3-21.3,28.3h-17.4c-11.7,0-21.3-12.7-21.3-28.3
					C103.8,252.6,113.3,240,125.1,240z"/>
				<path class="st6" d="M125.1,296.6c11.7,0,21.3-12.7,21.3-28.3c0-15.6-9.5-28.3-21.3-28.3"/>
				<path class="st6" d="M130.2,296.6c11.7,0,21.3-12.7,21.3-28.3"/>
				<path class="st6" d="M138.1,296.6c11.7,0,21.3-12.7,21.3-28.3"/>
				<ellipse class="st7" cx="125.1" cy="268.3" rx="10.6" ry="14.2"/>
				<path class="st5" d="M120.5,268.3c0,3.4,2,6.1,4.6,6.1c2.5,0,4.6-2.7,4.6-6.1s-2-6.1-4.6-6.1
					C122.6,262.2,120.5,264.9,120.5,268.3z"/>
			</g>
			<polygon class="st8" points="246.6,210.2 139.4,207.1 138.6,240.5 133.8,245.1 157,247.8 157.2,277.9 161.2,277 161.2,281.2 
				240.5,292.7 242.2,287.7 246.6,287.7 248,248.6 			"/>
			<path class="st9" d="M59.9,234.7l121.5,9.1l-5.7-0.4v16.1l53,6v-18.1l15.8,1.2l-1-38.3l-184.2-5.5L59.9,234.7z M195.1,238.2
				c0,1.8-1.5,3.3-3.3,3.3H190c-1.8,0-3.3-1.5-3.3-3.3v-0.7c0-1.8,1.5-3.3,3.3-3.3h1.7c1.8,0,3.3,1.5,3.3,3.3V238.2z M229.3,240.4
				c0-1.8,1.5-3.3,3.3-3.3h1.7c1.8,0,3.3,1.5,3.3,3.3v0.7c0,1.8-1.5,3.3-3.3,3.3h-1.7c-1.8,0-3.3-1.5-3.3-3.3V240.4z M147.4,234.9
				c0-1.8,1.5-3.3,3.3-3.3h1.7c1.8,0,3.3,1.5,3.3,3.3v0.7c0,1.8-1.5,3.3-3.3,3.3h-1.7c-1.8,0-3.3-1.5-3.3-3.3V234.9z"/>
			<polygon class="st10" points="312.8,78.5 246.6,76.6 246.6,210.2 387.2,212 336.8,80.9 			"/>
			<g>
				<path class="st8" d="M325.1,111c0,0-27.3,1.6-32.3,2.8c-5,1.3-15.5,7.2-17.6,14.9l60.1-4.2l3.8-11.8L325.1,111z"/>
				<polygon class="st2" points="332.8,116.3 311.9,111.9 325.1,111 335.3,115.3 				"/>
			</g>
			<path class="st11" d="M56.6,204.6l190,5.6V76.6L57.8,106L56.6,204.6z M213.8,148.7c4.6,0,4.6,7.1,0,7.1
				C209.2,155.8,209.1,148.7,213.8,148.7z"/>
			<g>
				<polygon class="st4" points="246.6,210.2 248,248.6 279.9,245.1 277.4,210.9 				"/>
				<polygon class="st5" points="248,248.6 246.6,287.7 282.2,282.2 279.9,245.1 				"/>
				<polygon class="st3" points="246.6,287.7 242.2,287.7 240.5,292.7 279.9,285.2 282.2,282.2 				"/>
			</g>
			<line class="st6" x1="243.9" y1="224.9" x2="59.5" y2="217"/>
			<polygon class="st3" points="161.2,277 161.2,242.3 138.6,240.5 136.5,242.5 159.1,244.3 159.8,277.3 			"/>
			<g>
				<g>
					<path class="st4" d="M272.5,245.3c0,0-12.2,2.8-15.8,19.4c-3.6,16.6-0.8,28.7-0.8,28.7l53.9-12.1l-4.6-29l-24.6-9.7
						L272.5,245.3z"/>
					<g>
						<path class="st5" d="M286.2,258.4h21.2c14.3,0,25.9,14.3,25.9,32c0,17.7-11.6,32-25.9,32h-21.2c-14.3,0-25.9-14.3-25.9-32
							C260.3,272.7,271.9,258.4,286.2,258.4z"/>
						<path class="st6" d="M286.2,322.3c14.3,0,25.9-14.3,25.9-32c0-17.7-11.6-32-25.9-32"/>
						<path class="st6" d="M292.5,322.3c14.3,0,25.9-14.3,25.9-32"/>
						<path class="st6" d="M302.1,322.3c14.3,0,25.9-14.3,25.9-32"/>
						<ellipse class="st7" cx="286.2" cy="290.4" rx="12.9" ry="16"/>
						<ellipse class="st5" cx="286.2" cy="290.4" rx="5.6" ry="6.9"/>
					</g>
				</g>
				<g>
					<path class="st4" d="M388.8,237.9c0,0-12.2,2.8-15.8,19.4c-3.6,16.6-0.8,28.7-0.8,28.7l53.9-12.1l-4.6-29l-24.6-9.7
						L388.8,237.9z"/>
					<g>
						<path class="st5" d="M402.5,251.1h21.2c14.3,0,25.9,14.3,25.9,32s-11.6,32-25.9,32h-21.2c-14.3,0-25.9-14.3-25.9-32
							S388.2,251.1,402.5,251.1z"/>
						<path class="st6" d="M402.5,315c14.3,0,25.9-14.3,25.9-32c0-17.7-11.6-32-25.9-32"/>
						<path class="st6" d="M408.8,315c14.3,0,25.9-14.3,25.9-32"/>
						<path class="st6" d="M418.4,315c14.3,0,25.9-14.3,25.9-32"/>
						<ellipse class="st7" cx="402.5" cy="283" rx="12.9" ry="16"/>
						<ellipse class="st5" cx="402.5" cy="283" rx="5.6" ry="6.9"/>
					</g>
				</g>
				<g>
					<g>
						<path class="st8" d="M470.4,192.2h11.2c1.9,0,3.4-1.5,3.4-3.4v-41.2c0-1.9-1.5-3.4-3.4-3.4h-11.2c-1.9,0-3.4,1.5-3.4,3.4v41.2
							C467,190.6,468.6,192.2,470.4,192.2z"/>
					</g>
					<path class="st6" d="M468.8,146.2v43.2c0,0,0.5,1.9,2.7,1.9"/>
				</g>
				<path class="st9" d="M472.9,256.1l6-5l-2-59l-10.3-50.9h6.9v-7.1l-10.9-13.6h-3.2c0,0-26.2-31.5-40.3-44.2
					c0,0-74.7-9.9-113.6-9.3l-3.7,4.3v30.1l33.4,13.9l-5.4,2.2l-1.8,7.3l-58.4,4.4l-2.9,5.2l-5.6,96.8l1.4,5.4h11
					c0,0-3.4,5.5-3.4,6.8c0,1.3,2.1,1.9,2.1,1.9s10.6-2.4,21.4,5.2c10.9,7.6,14.2,19.2,15.5,28.5c1.3,9.3,2.1,26,2.1,26h18.9
					L472.9,256.1z"/>
				<path class="st12" d="M303.9,189.5h34.7v-52.1h-32.7c-5.7,0-10.4,4.6-10.4,10.4v33.4C295.5,185.7,299.3,189.5,303.9,189.5z"/>
				<g>
					<g>
						<polygon class="st8" points="344.9,262.1 348.1,260.8 345.5,254.5 345.5,186 342.1,186 342.1,255.2 						"/>
					</g>
					<polyline class="st6" points="344.9,262.1 342.1,255.2 342.1,186 					"/>
				</g>
				<g>
					<g>
						<polygon class="st12" points="465.2,141 350.5,137.4 350.5,186 355.1,190.4 469.3,192.7 473.1,190.5 473.7,186 						"/>
						<g>
							<g>
								<path class="st13" d="M350.5,186l4.6,4.4l1.1,0l3.2,0.1l14.5,0.3l3.2,0.1l92.3,1.9l1.1-0.6c0,0-1.9-2.5-7.9-3.2
									c-6.1-0.6-58.9-0.9-58.9-0.9s-19.1-5.2-26.1-6.4c-1.7-4.2-5.9-7.2-10.7-7.2c-5,0-9.3,3.2-10.9,7.7c-1.4,0.2-2.5,0.4-3.3,0.6
									C348.9,183.7,350.5,186,350.5,186z M359,181.7c1.5-2.7,4.4-4.6,7.8-4.6c3.2,0,5.9,1.7,7.5,4.1
									C370.1,180.9,363.8,181.2,359,181.7z"/>
								<polyline class="st6" points="377.5,181.6 374.2,181.2 359,181.7 355.9,182 								"/>
								<polyline class="st6" points="469.1,191 355.9,188.9 351.6,184.4 								"/>
							</g>
							<g>
								<path class="st14" d="M356.9,177.1c0,0,1.3-2.6,2.5-3.1c1.1-0.5,2,0,2,0s2.1-1.3,2.3-1.1c0.3,0.2,0.7,0.5,0.7,0.5
									s1.8-0.7,2.2-0.5c0.5,0.3,0.5,0.3,0.5,0.3s1.6-0.2,2.1,0.5c0,0,1,0.3,1.1,1.4c0.1,1,0,1.9-0.8,2.1c0,0-0.6,0.9-1.8,0
									c0,0-1.5,0.8-2,0c0,0-1.1,0.7-2.1,0.5l-1.4-2.4c0,0-3.7,1.9-5,4.2L356.9,177.1z"/>
								<path class="st6" d="M361.4,174c0,0,0.9,1,0,1.7"/>
								<path class="st6" d="M364.4,173.3c0,0,1.7,2.6,1.4,3.7"/>
								<path class="st6" d="M367.1,173.1c0,0,0.8,3.2,0.6,4"/>
								<path class="st6" d="M369,173.3c0,0,0.4,3.4,0.3,3.7"/>
							</g>
						</g>
					</g>
					<g>
						<polygon class="st15" points="453.3,192.1 438.9,192.1 402.2,139 415.9,139.4 						"/>
						<polygon class="st15" points="435.8,192.1 430.4,192.1 393.8,139 398.4,139.4 						"/>
					</g>
				</g>
				<g>
					<polyline class="st6" points="470.1,256.2 476.1,250.1 474.5,200.5 471.4,192.1 					"/>
					<polygon class="st3" points="466.6,141.2 344.5,136.7 344.5,140.1 467.2,144 					"/>
					<path class="st6" d="M459.4,120.5c0,0-105.9-5-108.1-4.9c-2.2,0.2-23.2,9.1-23.2,9.1l-3,6.8"/>
					<polyline class="st6" points="344.5,136.7 338.6,130.9 266.9,134.4 					"/>
					<path class="st6" d="M344.5,140.1l-5.9-6.2c0,0-36.7,1.7-39.6,2c-2.9,0.3-5.8,3.5-5.9,9.8c-0.2,6.3-3.7,91.2-3.7,91.2"/>
					<polygon class="st3" points="273.7,236.6 308.6,236.7 313.6,238.8 318.4,258.4 312.1,241.5 307.3,238.6 272.6,238.5 					"/>
					<polyline class="st6" points="363.7,191 362.5,200.8 361.4,256.1 358.1,260.7 					"/>
					<polyline class="st6" points="477.1,199.5 474.5,200.5 362.5,200.8 263.1,199.5 					"/>
					<polyline class="st6" points="477.7,215.1 475.2,216.1 362.2,216.7 262.3,213.7 					"/>
					<path class="st6" d="M351.3,115.6c0,0,0.3-8-6.2-14c-6.6-6-39.5-34.5-39.5-34.5"/>
				</g>
				<g>
					<path class="st16" d="M311.2,162.8c0,0-10.2,2.7-11.3,3.8c-1.1,1.1-2.5,6.2-3.3,7.3c-0.8,1.1-6.6,6.7-6.4,8.6
						c0.2,1.9,2.7,8.2,7.1,6.4c4.4-1.8,5.7-2.9,5.7-2.9l0.4,3.5h35.9l19-6.7c0,0-0.7-3.1-1.3-6.3l-16.1,1c0,0-6.2-8.6-7.5-9.4
						c-1.4-0.8-9-3.9-9-3.9L311.2,162.8z"/>
					<path class="st15" d="M303.7,178.8c0,0-4.1,0.6-4.9-7.1l-1.2,1.3c0,0,0.6,7,5.6,7.1L303.7,178.8z"/>
					<g>
						<path class="st15" d="M324.5,164.8l4.2,5.3l-4.9-2v2c0,0,4.2,11.1,4.5,19.4l-2.4,0c0,0-0.6-8-2.1-12.7
							c-1.5-4.7-2.6-7.3-2.6-7.3l-2.3-1.1l-4,2.1l-4.3-8.3l3.4-2.5L324.5,164.8z"/>
						<polygon class="st17" points="315.1,170.5 319.1,169.8 321.5,169.8 319.1,168.7 						"/>
						<polygon class="st17" points="328.8,170.1 323.9,169.6 323.9,168.1 						"/>
					</g>
					<g>
						<g>
							<path class="st14" d="M300.3,171.7c0,0,3.2-4.9,4.2-6.6c1-1.7,2.1-2.3,2.2-4.6c0.1-2.3,0.6-2.3,1.6-1.5c1,0.8,1,2.8,0.9,3.8
								c-0.2,0.9-0.4,2-0.4,2s5,1,5.4,2.2c0.4,1.2-0.4,2.1-0.4,2.1s1.1,1.7-0.6,2.6c0,0,0.2,2.1-1.2,2.1c0,0,0.2,1.6-2.1,1.3
								c-2.3-0.3-4.8-1.3-4.8-1.3l-1.8,2.7C303.2,176.5,300.3,175.1,300.3,171.7z"/>
							<polygon class="st17" points="305,173.8 303.5,173.3 304,175.2 							"/>
						</g>
						<polygon class="st3" points="308.7,164.8 307.2,164.4 308.9,163.8 						"/>
					</g>
					<path class="st14" d="M323.2,165.3l-0.9,3.8c0,0-4.6-3.5-6.2-5.8L323.2,165.3z"/>
					<path class="st18" d="M311.2,150.7c0,0-0.7,2.5,0,4.8l3.1,0.2l0.5-5.4L311.2,150.7z"/>
					<path class="st14" d="M327,151.4c0,0,0.6,10-4.5,12.4c-5.1,2.4-7.9-5.8-7.9-5.8s-2.9,0.6-3.4-2.4c-0.5-3,2.3-2.5,3.1-1.5
						c0,0-0.6-4.9,2.7-6.2C320.2,146.6,326.6,146.5,327,151.4z"/>
					<path class="st3" d="M314.2,154.8c0,0-1.2-1.1-2.3,0"/>
					<path class="st18" d="M327,152.1c0,0,0.1,8.1-1,11c-1.2,2.9-7.3,3.2-9.6,0.6s-3-3.2-2.4-9.8l0.2-2.9h1.3c0,0,0,7,0.3,8.2
						c0,0,3.1-2.7,6.5-0.9c0,0,2.8-1,3.7,0.9L327,152.1z"/>
					<path class="st14" d="M324.3,160.8l-2-1.1c0,0-1.8,1.4-2.7,1.1C319.6,160.8,321.8,161.8,324.3,160.8z"/>
					<polygon class="st3" points="302.9,186 308.3,178.8 303.2,188.9 					"/>
					<path class="st6" d="M304.5,174.6c0,0,0.7,2.5,0,2.5c-0.7,0-1.3-0.6-1.3-0.6s-2.3-0.9-2.9-4.8c0,0-0.6-0.8-0.3-1.2
						c0.3-0.4,1.1,0,1.1,0"/>
					<path class="st6" d="M304.5,177.1l-1.6,3.8c0,0,0.9,3.2-1.4,4.8"/>
					<path class="st6" d="M303.5,179.4c0,0,1.6,0.6,1,2.2"/>
					<path class="st6" d="M323.2,170.5c0,0,2.5,7.7,3.3,11.5c0.8,3.9,0.5,7.5,0.5,7.5"/>
					<ellipse class="st15" cx="316.3" cy="178.6" rx="4.4" ry="2.7"/>
					<g>
						<polyline class="st6" points="322.8,153.1 323.2,158.1 321.5,158 						"/>
						<path class="st6" d="M317.3,161.2c3.1,0.2,5-1.5,5-1.5s2.5,1.6,3.7,1.6"/>
						<path class="st2" d="M323.9,154.7c0,0.2,0.2,0.4,0.4,0.4c0.2,0,0.4-0.2,0.4-0.4c0-0.2-0.2-0.4-0.4-0.4
							C324.1,154.3,323.9,154.5,323.9,154.7z"/>
						<g>
							<path class="st2" d="M322.8,153.4c0.2,0.3,0.9,0.1,1.6,0.1c0.7,0,1.4,0.2,1.6-0.1c0.2-0.3-0.5-1-1.6-1
								S322.6,153.2,322.8,153.4z"/>
						</g>
						<path class="st2" d="M318.9,154.7c0,0.2,0.2,0.4,0.4,0.4c0.2,0,0.4-0.2,0.4-0.4c0-0.2-0.2-0.4-0.4-0.4
							C319.1,154.3,318.9,154.5,318.9,154.7z"/>
						<g>
							<path class="st2" d="M317.7,153.4c0.2,0.3,0.9,0.1,1.6,0.1c0.7,0,1.4,0.2,1.6-0.1c0.2-0.3-0.5-1-1.6-1
								C318.2,152.4,317.5,153.2,317.7,153.4z"/>
						</g>
					</g>
					<g>
						<g>
							<path class="st16" d="M330.2,152.9c0,0-0.2,0.5-1.2,0c-1-0.5-2-2.4-5.4-2.2c-3.4,0.2-2.9,2.1-4.7,1.9
								c-1.8-0.2-7.7-1.9-7.7-1.9s-0.2-5.7,1.4-7.4c1.7-1.7,7.4-2.4,10.9-1.3c3.5,1.1,4.3,6.6,4.3,6.6L330.2,152.9z"/>
							<path class="st6" d="M327.8,148.6c0,0-2.2-2.2-6.6-0.8c-4.4,1.4-6,3.3-8.4,3.3"/>
						</g>
						<path class="st15" d="M318.3,144.6c0,1.2,1.5,2.1,3.4,2.1s3.4-0.9,3.4-2.1s-1.5-2.1-3.4-2.1S318.3,143.5,318.3,144.6z"/>
						<path class="st6" d="M316.3,141.8c0,0-2.2,1.1-2.6,3.3s-0.7,4.3-0.7,4.3"/>
					</g>
					<line class="st6" x1="300" y1="170.5" x2="296.5" y2="174"/>
				</g>
				<g>
					<g>
						<path class="st8" d="M341.4,188.9l-8.2,16.4c0,0,3.4,1.4,2.2,4.7c-1.1,3.3-8.3,5.7-10.1,3.5c-1.8-2.2-1.3-7.9,0-8.5
							c1.3-0.6,4.8-0.6,4.8-0.6l7.6-15.5H341.4z"/>
						<polygon class="st3" points="341.4,188.9 340.4,191 336.8,191 337.8,188.9 						"/>
						<polygon class="st3" points="330.2,204.4 332,204.4 332,200.8 						"/>
						<path class="st6" d="M326.4,206.1c0,0-1.2,4.6,0.6,8.2"/>
					</g>
					<g>
						<path class="st8" d="M338.9,188.9h11.2c1.9,0,3.4-1.5,3.4-3.4v-43.5c0-1.9-1.5-3.4-3.4-3.4h-11.2c-1.9,0-3.4,1.5-3.4,3.4v43.5
							C335.5,187.4,337,188.9,338.9,188.9z"/>
					</g>
					<path class="st6" d="M337.2,140.8V186c0,0,0.5,2,2.7,2"/>
				</g>
				<g>
					<path class="st5" d="M389.1,255.4l71.6-1.4c2.5,0,4.4-2.1,4.4-4.6l-0.6-28.9c0-2.5-2.1-4.4-4.6-4.4l-71.6,1.4
						c-2.5,0-4.4,2.1-4.4,4.6l0.6,28.9C384.6,253.5,386.6,255.5,389.1,255.4z"/>
					<path class="st6" d="M390.8,251l68.6-1.1c1.7,0,3.1-1.4,3-3.1l-0.5-24.2c0-1.7-1.4-3-3.1-3l-68.6,1.1c-1.7,0-3.1,1.4-3,3.1
						l0.5,24.2C387.7,249.7,389.1,251,390.8,251z"/>
					<line class="st6" x1="462.1" y1="227.4" x2="387.3" y2="228.9"/>
					<line class="st6" x1="462.1" y1="234.5" x2="387.5" y2="236.7"/>
					<line class="st6" x1="462.4" y1="241.5" x2="387.6" y2="243.5"/>
				</g>
				<g>
					<g>
						<path class="st12" d="M272.6,140.6l14.1,0.3c1.9,0,3.5,1.6,3.4,3.5l-0.7,34.3l-18.8-37.6C271.2,140.8,271.8,140.6,272.6,140.6
							z"/>
						<path class="st12" d="M288.3,188.4c-0.7,0.7-1.6,1.1-2.6,1.1l-14.1-0.3c-1.9,0-3.5-1.6-3.4-3.5l0.7-36.2L288.3,188.4z"/>
						<path class="st15" d="M269,144c0-1.2,0.7-2.3,1.6-2.9l18.8,37.6l-0.1,7.3c0,0.9-0.4,1.7-0.9,2.3l-19.4-38.9L269,144z"/>
					</g>
					<path class="st6" d="M290.1,144.4l-0.8,41.7c0,0-0.3,3.4-3.6,3.4c-3.3-0.1-15,0-15,0"/>
				</g>
				<g>
					<path class="st8" d="M483.2,296.4V263l-1.8-3l-122.7,5.8l-44-0.5l1.7,37.4c0,0,21,5.3,25.2,5.3c4.2,0,137.3-8.5,137.3-8.5
						L483.2,296.4z"/>
					<g>
						<path class="st14" d="M348.4,291.4l33.8-0.7c2.5,0,4.4-2.1,4.4-4.5l-0.2-8.8c0-2.5-2.1-4.4-4.5-4.4l-33.8,0.7
							c-2.5,0-4.4,2.1-4.4,4.5l0.2,8.8C343.9,289.5,345.9,291.5,348.4,291.4z"/>
						<ellipse class="st15" cx="369.7" cy="281.7" rx="5.9" ry="5.9"/>
						<ellipse class="st19" cx="377.8" cy="281.6" rx="4.7" ry="4.7"/>
						<line class="st6" x1="345.4" y1="275.9" x2="345.7" y2="289.2"/>
						<line class="st6" x1="384.2" y1="290.7" x2="346.4" y2="291.4"/>
					</g>
					<g>
						<path class="st14" d="M471.5,282.3l12.2-0.2l-0.3-15.6l-12.2,0.2c-2.5,0-4.5,2.1-4.4,4.6l0.1,6.5
							C466.9,280.4,469,282.4,471.5,282.3z"/>
						<path class="st15" d="M469.4,273.9c0.1,3.2,1.9,5.8,4.1,5.8c2.2,0,3.9-2.7,3.9-5.9c-0.1-3.2-1.9-5.8-4.1-5.8
							C471.1,268.1,469.4,270.7,469.4,273.9z"/>
						<path class="st19" d="M475.7,273.8c0.1,2.6,1.5,4.6,3.3,4.6c1.8,0,3.1-2.2,3.1-4.7c-0.1-2.6-1.5-4.6-3.3-4.6
							C477,269.1,475.6,271.2,475.7,273.8z"/>
						<line class="st6" x1="466.7" y1="269.9" x2="466.9" y2="279.3"/>
						<line class="st6" x1="483.7" y1="282.1" x2="470.1" y2="282.3"/>
					</g>
					<g>
						
							<rect x="407.7" y="269.7" transform="matrix(-0.9998 1.924852e-02 -1.924852e-02 -0.9998 856.1295 546.7913)" class="st12" width="35.4" height="15.6"/>
						<polyline class="st6" points="443.3,285 407.9,285.7 407.6,270.1 						"/>
						
							<rect x="410.1" y="271.6" transform="matrix(-0.9998 1.924923e-02 -1.924923e-02 -0.9998 856.2288 546.0781)" class="st6" width="30.7" height="11.1"/>
					</g>
					<polyline class="st6" points="480.5,261.4 359.8,267.8 316.8,267.2 318.3,301 					"/>
					<polygon class="st3" points="481.4,260 472.9,256.1 358.1,260.7 318.4,258.4 314.7,265.3 358.7,265.8 					"/>
					<polyline class="st6" points="483.2,296.4 341.4,305 321.2,301 					"/>
				</g>
				<polyline class="st6" points="329.9,117.5 335.3,115.3 301.9,101.4 				"/>
			</g>
			<line class="st6" x1="228.7" y1="247.4" x2="175.7" y2="243.4"/>
			<line class="st6" x1="243.9" y1="227.1" x2="177.5" y2="224.3"/>
			<line class="st6" x1="227.7" y1="247.3" x2="227.7" y2="265.3"/>
			<polyline class="st6" points="243.9,287.4 246.6,247.5 245.2,210.2 			"/>
			<line class="st6" x1="246.6" y1="77.4" x2="246.6" y2="210.2"/>
			<line class="st6" x1="245.2" y1="89.9" x2="57.6" y2="115.6"/>
			<line class="st6" x1="246.6" y1="199.5" x2="56.6" y2="196.5"/>
			
				<ellipse transform="matrix(0.9985 -5.477449e-02 5.477449e-02 0.9985 -8.0565 7.9621)" class="st20" cx="141.2" cy="151" rx="61" ry="31.1"/>
		</g>
	</g>
</g>
</svg>
