<?xml version="1.0" encoding="utf-8"?>
<!-- Generator: Adobe Illustrator 24.0.0, SVG Export Plug-In . SVG Version: 6.00 Build 0)  -->
<!DOCTYPE svg PUBLIC "-//W3C//DTD SVG 1.1//EN" "http://www.w3.org/Graphics/SVG/1.1/DTD/svg11.dtd" [
	<!ENTITY ns_extend "http://ns.adobe.com/Extensibility/1.0/">
	<!ENTITY ns_ai "http://ns.adobe.com/AdobeIllustrator/10.0/">
	<!ENTITY ns_graphs "http://ns.adobe.com/Graphs/1.0/">
	<!ENTITY ns_vars "http://ns.adobe.com/Variables/1.0/">
	<!ENTITY ns_imrep "http://ns.adobe.com/ImageReplacement/1.0/">
	<!ENTITY ns_sfw "http://ns.adobe.com/SaveForWeb/1.0/">
	<!ENTITY ns_custom "http://ns.adobe.com/GenericCustomNamespace/1.0/">
	<!ENTITY ns_adobe_xpath "http://ns.adobe.com/XPath/1.0/">
]>
<svg version="1.1" id="Layer_1" xmlns:x="&ns_extend;" xmlns:i="&ns_ai;" xmlns:graph="&ns_graphs;"
	 xmlns="http://www.w3.org/2000/svg" xmlns:xlink="http://www.w3.org/1999/xlink" x="0px" y="0px" viewBox="0 0 538 380"
	 style="enable-background:new 0 0 538 380;" xml:space="preserve">
<style type="text/css">
	.st0{fill-rule:evenodd;clip-rule:evenodd;fill:#304057;}
	.st1{fill:#1D1D1B;}
	.st2{fill:#1D1D1B;stroke:#1D1D1B;stroke-width:0.75;stroke-linecap:round;stroke-linejoin:round;stroke-miterlimit:10;}
	.st3{fill:#9D4747;}
	.st4{fill:#4F5151;}
	.st5{fill:none;stroke:#1D1D1B;stroke-width:0.75;stroke-linecap:round;stroke-linejoin:round;stroke-miterlimit:10;}
	.st6{fill:#E2EDF4;}
	.st7{fill:#3D3D3F;}
	.st8{fill:#FA5C62;}
	.st9{fill:#7FAFB5;}
	.st10{fill:#9FD0D9;}
	.st11{fill:#B4D3F3;}
	.st12{fill:#8E8E8E;}
	.st13{fill:#FFD367;}
	.st14{fill:#F5FAFF;}
	.st15{fill:#6074D7;}
	.st16{stroke:#1D1D1B;stroke-width:0.75;stroke-linecap:round;stroke-linejoin:round;stroke-miterlimit:10;}
	.st17{fill:#61676A;}
	.st18{fill:none;stroke:#1D1D1B;stroke-miterlimit:10;}
	.st19{fill:#FFFFFF;}
</style>
<metadata>
	<sfw  xmlns="&ns_sfw;">
		<slices></slices>
		<sliceSourceBounds  bottomLeftOrigin="true" height="380" width="538" x="0" y="0"></sliceSourceBounds>
		<optimizationSettings>
			<targetSettings  fileFormat="PNG24Format" targetSettingsID="0">
				<PNG24Format  filtered="false" interlaced="false" matteColor="#FFFFFF" noMatteColor="false" transparency="true">
					</PNG24Format>
			</targetSettings>
		</optimizationSettings>
	</sfw>
</metadata>
<path class="st0" d="M0,0h538v380H0V0z"/>
<g>
	<g>
		
			<ellipse transform="matrix(0.1315 -0.9913 0.9913 0.1315 -79.1915 524.2646)" class="st1" cx="259.6" cy="307.3" rx="22.5" ry="209.4"/>
		<g>
			<path class="st2" d="M59.9,237.6l1.4,17.5H79l0.6-16.5l3.2,0.2v4.9l7.3,8.4c0,0-2.6,1-2.6,3.9c0,2.8,2.6,3.9,2.6,3.9H63.5
				l0.2,7.7l36.6,1.4l7.2-30.4l-47.5-3.2V237.6z"/>
			<path class="st3" d="M121.3,241.7c0,0-3.3-5.8-9.7-5.2c-6.4,0.6-11,9-12.3,18.3c-1.3,9.3,0,30.9,0,30.9H110L121.3,241.7z"/>
			<g>
				<path class="st4" d="M123.3,242.3h17.4c11.7,0,21.3,12.7,21.3,28.3c0,15.6-9.5,28.3-21.3,28.3h-17.4
					c-11.7,0-21.3-12.7-21.3-28.3C102.1,254.9,111.6,242.3,123.3,242.3z"/>
				<path class="st5" d="M123.3,298.9c11.7,0,21.3-12.7,21.3-28.3c0-15.6-9.5-28.3-21.3-28.3"/>
				<path class="st5" d="M128.5,298.9c11.7,0,21.3-12.7,21.3-28.3"/>
				<path class="st5" d="M136.4,298.9c11.7,0,21.3-12.7,21.3-28.3"/>
				<ellipse class="st6" cx="123.3" cy="270.6" rx="10.6" ry="14.2"/>
				<path class="st4" d="M118.8,270.6c0,3.4,2,6.1,4.6,6.1c2.5,0,4.6-2.7,4.6-6.1s-2-6.1-4.6-6.1
					C120.8,264.5,118.8,267.2,118.8,270.6z"/>
			</g>
			<polygon class="st7" points="244.8,212.5 137.7,209.4 136.9,242.8 132.1,247.4 155.3,250.1 155.4,280.2 159.4,279.3 159.4,283.5 
				238.7,295 240.5,290 244.8,290 246.3,250.9 			"/>
			<path class="st8" d="M58.2,237l121.5,9.1l-5.7-0.4v16.1l53,6v-18.1l15.8,1.2l-1-38.3L57.5,207L58.2,237z M193.3,240.5
				c0,1.8-1.5,3.3-3.3,3.3h-1.7c-1.8,0-3.3-1.5-3.3-3.3v-0.7c0-1.8,1.5-3.3,3.3-3.3h1.7c1.8,0,3.3,1.5,3.3,3.3V240.5z M227.5,242.7
				c0-1.8,1.5-3.3,3.3-3.3h1.7c1.8,0,3.3,1.5,3.3,3.3v0.7c0,1.8-1.5,3.3-3.3,3.3h-1.7c-1.8,0-3.3-1.5-3.3-3.3V242.7z M145.7,237.2
				c0-1.8,1.5-3.3,3.3-3.3h1.7c1.8,0,3.3,1.5,3.3,3.3v0.7c0,1.8-1.5,3.3-3.3,3.3H149c-1.8,0-3.3-1.5-3.3-3.3V237.2z"/>
			<polygon class="st9" points="311,80.8 244.8,79 244.8,212.5 385.5,214.3 335.1,83.2 			"/>
			<g>
				<path class="st7" d="M323.3,113.3c0,0-27.3,1.6-32.3,2.8c-5,1.3-15.5,7.2-17.6,14.9l60.1-4.2l3.8-11.8L323.3,113.3z"/>
				<polygon class="st1" points="331.1,118.6 310.1,114.2 323.3,113.3 333.6,117.6 				"/>
			</g>
			<path class="st10" d="M54.8,206.9l190,5.6V79L56,108.3L54.8,206.9z M212,151c4.6,0,4.6,7.1,0,7.1C207.4,158.1,207.4,151,212,151z
				"/>
			<g>
				<polygon class="st3" points="244.8,212.5 246.3,250.9 278.1,247.4 275.7,213.2 				"/>
				<polygon class="st4" points="246.3,250.9 244.8,290 280.5,284.5 278.1,247.4 				"/>
				<polygon class="st2" points="244.8,290 240.5,290 238.7,295 278.1,287.5 280.5,284.5 				"/>
			</g>
			<line class="st5" x1="242.1" y1="227.2" x2="57.8" y2="219.3"/>
			<polygon class="st2" points="159.4,279.3 159.4,244.6 136.9,242.8 134.8,244.8 157.4,246.6 158.1,279.6 			"/>
			<g>
				<g>
					<path class="st3" d="M270.7,247.6c0,0-12.2,2.8-15.8,19.4c-3.6,16.6-0.8,28.7-0.8,28.7l53.9-12.1l-4.6-29l-24.6-9.7
						L270.7,247.6z"/>
					<g>
						<path class="st4" d="M284.4,260.7h21.2c14.3,0,25.9,14.3,25.9,32c0,17.7-11.6,32-25.9,32h-21.2c-14.3,0-25.9-14.3-25.9-32
							C258.5,275,270.1,260.7,284.4,260.7z"/>
						<path class="st5" d="M284.4,324.6c14.3,0,25.9-14.3,25.9-32c0-17.7-11.6-32-25.9-32"/>
						<path class="st5" d="M290.7,324.6c14.3,0,25.9-14.3,25.9-32"/>
						<path class="st5" d="M300.3,324.6c14.3,0,25.9-14.3,25.9-32"/>
						<ellipse class="st6" cx="284.4" cy="292.7" rx="12.9" ry="16"/>
						<ellipse class="st4" cx="284.4" cy="292.7" rx="5.6" ry="6.9"/>
					</g>
				</g>
				<g>
					<path class="st3" d="M387.1,240.2c0,0-12.2,2.8-15.8,19.4c-3.6,16.6-0.8,28.7-0.8,28.7l53.9-12.1l-4.6-29l-24.6-9.7
						L387.1,240.2z"/>
					<g>
						<path class="st4" d="M400.8,253.4H422c14.3,0,25.9,14.3,25.9,32c0,17.7-11.6,32-25.9,32h-21.2c-14.3,0-25.9-14.3-25.9-32
							C374.9,267.7,386.5,253.4,400.8,253.4z"/>
						<path class="st5" d="M400.8,317.3c14.3,0,25.9-14.3,25.9-32c0-17.7-11.6-32-25.9-32"/>
						<path class="st5" d="M407,317.3c14.3,0,25.9-14.3,25.9-32"/>
						<path class="st5" d="M416.7,317.3c14.3,0,25.9-14.3,25.9-32"/>
						<ellipse class="st6" cx="400.8" cy="285.3" rx="12.9" ry="16"/>
						<ellipse class="st4" cx="400.8" cy="285.3" rx="5.6" ry="6.9"/>
					</g>
				</g>
				<g>
					<g>
						<path class="st7" d="M468.7,194.5h11.2c1.9,0,3.4-1.5,3.4-3.4v-41.2c0-1.9-1.5-3.4-3.4-3.4h-11.2c-1.9,0-3.4,1.5-3.4,3.4V191
							C465.3,192.9,466.8,194.5,468.7,194.5z"/>
					</g>
					<path class="st5" d="M467,148.5v43.2c0,0,0.5,1.9,2.7,1.9"/>
				</g>
				<path class="st8" d="M471.2,258.4l6-5l-2-59l-10.3-50.9h6.9v-7.1l-10.9-13.6h-3.2c0,0-26.2-31.5-40.3-44.2
					c0,0-74.7-9.9-113.6-9.3l-3.7,4.3v30.1l33.4,13.9l-5.4,2.2l-1.8,7.3l-58.4,4.4l-2.9,5.2l-5.6,96.8l1.4,5.4h11
					c0,0-3.4,5.5-3.4,6.8c0,1.3,2.1,1.9,2.1,1.9s10.6-2.4,21.4,5.2c10.9,7.6,14.2,19.2,15.5,28.5c1.3,9.3,2.1,26,2.1,26h18.9
					L471.2,258.4z"/>
				<path class="st11" d="M302.1,191.8h34.7v-52.1h-32.7c-5.7,0-10.4,4.6-10.4,10.4v33.4C293.8,188,297.5,191.8,302.1,191.8z"/>
				<g>
					<g>
						<polygon class="st7" points="343.1,264.4 346.3,263.1 343.8,256.8 343.8,188.3 340.3,188.3 340.3,257.5 						"/>
					</g>
					<polyline class="st5" points="343.1,264.4 340.3,257.5 340.3,188.3 					"/>
				</g>
				<g>
					<g>
						<polygon class="st11" points="463.4,143.3 348.8,139.7 348.8,188.3 353.4,192.7 467.6,195 471.3,192.8 471.9,188.3 						"/>
						<g>
							<g>
								<path class="st12" d="M348.8,188.3l4.6,4.4l1.1,0l3.2,0.1l14.5,0.3l3.2,0.1l92.3,1.9l1.1-0.6c0,0-1.9-2.5-7.9-3.2
									c-6.1-0.6-58.9-0.9-58.9-0.9s-19.1-5.2-26.1-6.4c-1.7-4.2-5.9-7.2-10.7-7.2c-5,0-9.3,3.2-10.9,7.7c-1.4,0.2-2.5,0.4-3.3,0.6
									C347.2,186,348.8,188.3,348.8,188.3z M357.3,184c1.5-2.7,4.4-4.6,7.8-4.6c3.2,0,5.9,1.7,7.5,4.1
									C368.3,183.2,362.1,183.5,357.3,184z"/>
								<polyline class="st5" points="375.7,183.9 372.5,183.5 357.3,184 354.1,184.3 								"/>
								<polyline class="st5" points="467.3,193.3 354.1,191.2 349.9,186.7 								"/>
							</g>
							<g>
								<path class="st13" d="M355.2,179.4c0,0,1.3-2.6,2.5-3.1c1.1-0.5,2,0,2,0s2.1-1.3,2.3-1.1c0.3,0.2,0.7,0.5,0.7,0.5
									s1.8-0.7,2.2-0.5s0.5,0.3,0.5,0.3s1.6-0.2,2.1,0.5c0,0,1,0.3,1.1,1.4c0.1,1,0,1.9-0.8,2.1c0,0-0.6,0.9-1.8,0
									c0,0-1.5,0.8-2,0c0,0-1.1,0.7-2.1,0.5l-1.4-2.4c0,0-3.7,1.9-5,4.2L355.2,179.4z"/>
								<path class="st5" d="M359.6,176.3c0,0,0.9,1,0,1.7"/>
								<path class="st5" d="M362.7,175.6c0,0,1.7,2.6,1.4,3.7"/>
								<path class="st5" d="M365.4,175.4c0,0,0.8,3.2,0.6,4"/>
								<path class="st5" d="M367.2,175.6c0,0,0.4,3.4,0.3,3.7"/>
							</g>
						</g>
					</g>
					<g>
						<polygon class="st14" points="451.6,194.4 437.1,194.4 400.5,141.3 414.2,141.7 						"/>
						<polygon class="st14" points="434.1,194.4 428.7,194.4 392,141.3 396.7,141.7 						"/>
					</g>
				</g>
				<g>
					<polyline class="st5" points="468.4,258.5 474.3,252.4 472.7,202.8 469.7,194.4 					"/>
					<polygon class="st2" points="464.9,143.5 342.8,139 342.8,142.4 465.5,146.3 					"/>
					<path class="st5" d="M457.7,122.8c0,0-105.9-5-108.1-4.9c-2.2,0.2-23.2,9.1-23.2,9.1l-3,6.8"/>
					<polyline class="st5" points="342.8,139 336.9,133.2 265.1,136.7 					"/>
					<path class="st5" d="M342.8,142.4l-5.9-6.2c0,0-36.7,1.7-39.6,2s-5.8,3.5-5.9,9.8c-0.2,6.3-3.7,91.2-3.7,91.2"/>
					<polygon class="st2" points="272,238.9 306.9,239 311.8,241.1 316.7,260.7 310.4,243.8 305.6,240.9 270.9,240.8 					"/>
					<polyline class="st5" points="362,193.3 360.8,203.1 359.6,258.4 356.4,263 					"/>
					<polyline class="st5" points="475.4,201.8 472.7,202.8 360.8,203.1 261.4,201.8 					"/>
					<polyline class="st5" points="475.9,217.4 473.4,218.4 360.4,219 260.5,216 					"/>
					<path class="st5" d="M349.6,117.9c0,0,0.3-8-6.2-14c-6.6-6-39.5-34.5-39.5-34.5"/>
				</g>
				<g>
					<path class="st15" d="M309.4,165.1c0,0-10.2,2.7-11.3,3.8c-1.1,1.1-2.5,6.2-3.3,7.3c-0.8,1.1-6.6,6.7-6.4,8.6
						c0.2,1.9,2.7,8.2,7.1,6.4c4.4-1.8,5.7-2.9,5.7-2.9l0.4,3.5h35.9l19-6.7c0,0-0.7-3.1-1.3-6.3l-16.1,1c0,0-6.2-8.6-7.5-9.4
						c-1.4-0.8-9-3.9-9-3.9L309.4,165.1z"/>
					<path class="st14" d="M302,181.1c0,0-4.1,0.6-4.9-7.1l-1.2,1.3c0,0,0.6,7,5.6,7.1L302,181.1z"/>
					<g>
						<path class="st14" d="M322.8,167.1l4.2,5.3l-4.9-2v2c0,0,4.2,11.1,4.5,19.4l-2.4,0c0,0-0.6-8-2.1-12.7
							c-1.5-4.7-2.6-7.3-2.6-7.3l-2.3-1.1l-4,2.1l-4.3-8.3l3.4-2.5L322.8,167.1z"/>
						<polygon class="st16" points="313.3,172.8 317.3,172.1 319.7,172.1 317.3,171 						"/>
						<polygon class="st16" points="327,172.4 322.1,171.9 322.1,170.4 						"/>
					</g>
					<g>
						<g>
							<path class="st13" d="M298.6,174c0,0,3.2-4.9,4.2-6.6c1-1.7,2.1-2.3,2.2-4.6c0.1-2.3,0.6-2.3,1.6-1.5c1,0.8,1,2.8,0.9,3.8
								c-0.2,0.9-0.4,2-0.4,2s5,1,5.4,2.2c0.4,1.2-0.4,2.1-0.4,2.1s1.1,1.7-0.6,2.6c0,0,0.2,2.1-1.2,2.1c0,0,0.2,1.6-2.1,1.3
								c-2.3-0.3-4.8-1.3-4.8-1.3l-1.8,2.7C301.4,178.8,298.6,177.4,298.6,174z"/>
							<polygon class="st16" points="303.3,176.1 301.7,175.6 302.3,177.5 							"/>
						</g>
						<polygon class="st2" points="307,167.1 305.5,166.7 307.2,166.1 						"/>
					</g>
					<path class="st13" d="M321.5,167.6l-0.9,3.8c0,0-4.6-3.5-6.2-5.8L321.5,167.6z"/>
					<path class="st17" d="M309.4,153c0,0-0.7,2.5,0,4.8l3.1,0.2l0.5-5.4L309.4,153z"/>
					<path class="st13" d="M325.2,153.7c0,0,0.6,10-4.5,12.4c-5.1,2.4-7.9-5.8-7.9-5.8s-2.9,0.6-3.4-2.4c-0.5-3,2.3-2.5,3.1-1.5
						c0,0-0.6-4.9,2.7-6.2C318.5,148.9,324.9,148.8,325.2,153.7z"/>
					<path class="st2" d="M312.5,157.1c0,0-1.2-1.1-2.3,0"/>
					<path class="st17" d="M325.3,154.4c0,0,0.1,8.1-1,11c-1.2,2.9-7.3,3.2-9.6,0.6s-3-3.2-2.4-9.8l0.2-2.9h1.3c0,0,0,7,0.3,8.2
						c0,0,3.1-2.7,6.5-0.9c0,0,2.8-1,3.7,0.9L325.3,154.4z"/>
					<path class="st13" d="M322.5,163.1l-2-1.1c0,0-1.8,1.4-2.7,1.1C317.8,163.1,320.1,164.1,322.5,163.1z"/>
					<polygon class="st2" points="301.1,188.3 306.5,181.1 301.5,191.2 					"/>
					<path class="st5" d="M302.7,176.9c0,0,0.7,2.5,0,2.5c-0.7,0-1.3-0.6-1.3-0.6s-2.3-0.9-2.9-4.8c0,0-0.6-0.8-0.3-1.2
						c0.3-0.4,1.1,0,1.1,0"/>
					<path class="st5" d="M302.7,179.4l-1.6,3.8c0,0,0.9,3.2-1.4,4.8"/>
					<path class="st5" d="M301.7,181.7c0,0,1.6,0.6,1,2.2"/>
					<path class="st5" d="M321.5,172.8c0,0,2.5,7.7,3.3,11.5c0.8,3.9,0.5,7.5,0.5,7.5"/>
					<ellipse class="st14" cx="314.5" cy="180.9" rx="4.4" ry="2.7"/>
					<g>
						<polyline class="st5" points="321,155.4 321.5,160.4 319.7,160.3 						"/>
						<path class="st5" d="M315.6,163.5c3.1,0.2,5-1.5,5-1.5s2.5,1.6,3.7,1.6"/>
						<path class="st1" d="M322.2,157c0,0.2,0.2,0.4,0.4,0.4c0.2,0,0.4-0.2,0.4-0.4c0-0.2-0.2-0.4-0.4-0.4
							C322.4,156.6,322.2,156.8,322.2,157z"/>
						<g>
							<path class="st1" d="M321,155.7c0.2,0.3,0.9,0.1,1.6,0.1c0.7,0,1.4,0.2,1.6-0.1s-0.5-1-1.6-1S320.8,155.5,321,155.7z"/>
						</g>
						<path class="st1" d="M317.2,157c0,0.2,0.2,0.4,0.4,0.4c0.2,0,0.4-0.2,0.4-0.4c0-0.2-0.2-0.4-0.4-0.4
							C317.4,156.6,317.2,156.8,317.2,157z"/>
						<g>
							<path class="st1" d="M316,155.7c0.2,0.3,0.9,0.1,1.6,0.1c0.7,0,1.4,0.2,1.6-0.1c0.2-0.3-0.5-1-1.6-1S315.8,155.5,316,155.7z"
								/>
						</g>
					</g>
					<g>
						<g>
							<path class="st15" d="M328.5,155.2c0,0-0.2,0.5-1.2,0c-1-0.5-2-2.4-5.4-2.2c-3.4,0.2-2.9,2.1-4.7,1.9
								c-1.8-0.2-7.7-1.9-7.7-1.9s-0.2-5.7,1.4-7.4c1.7-1.7,7.4-2.4,10.9-1.3c3.5,1.1,4.3,6.6,4.3,6.6L328.5,155.2z"/>
							<path class="st5" d="M326.1,150.9c0,0-2.2-2.2-6.6-0.8c-4.4,1.4-6,3.3-8.4,3.3"/>
						</g>
						<path class="st14" d="M316.5,146.9c0,1.2,1.5,2.1,3.4,2.1c1.9,0,3.4-0.9,3.4-2.1s-1.5-2.1-3.4-2.1
							C318.1,144.8,316.5,145.8,316.5,146.9z"/>
						<path class="st5" d="M314.5,144.1c0,0-2.2,1.1-2.6,3.3s-0.7,4.3-0.7,4.3"/>
					</g>
					<line class="st5" x1="298.2" y1="172.8" x2="294.8" y2="176.3"/>
				</g>
				<g>
					<g>
						<path class="st7" d="M339.7,191.2l-8.2,16.4c0,0,3.4,1.4,2.2,4.7c-1.1,3.3-8.3,5.7-10.1,3.5c-1.8-2.2-1.3-7.9,0-8.5
							c1.3-0.6,4.8-0.6,4.8-0.6l7.6-15.5H339.7z"/>
						<polygon class="st2" points="339.7,191.2 338.6,193.3 335.1,193.3 336.1,191.2 						"/>
						<polygon class="st2" points="328.5,206.7 330.2,206.7 330.2,203.1 						"/>
						<path class="st5" d="M324.6,208.4c0,0-1.2,4.6,0.6,8.2"/>
					</g>
					<g>
						<path class="st7" d="M337.2,191.2h11.2c1.9,0,3.4-1.5,3.4-3.4v-43.5c0-1.9-1.5-3.4-3.4-3.4h-11.2c-1.9,0-3.4,1.5-3.4,3.4v43.5
							C333.7,189.7,335.3,191.2,337.2,191.2z"/>
					</g>
					<path class="st5" d="M335.5,143.1v45.2c0,0,0.5,2,2.7,2"/>
				</g>
				<g>
					<path class="st4" d="M387.4,257.7l71.6-1.4c2.5,0,4.4-2.1,4.4-4.6l-0.6-28.9c0-2.5-2.1-4.4-4.6-4.4l-71.6,1.4
						c-2.5,0-4.4,2.1-4.4,4.6l0.6,28.9C382.8,255.8,384.9,257.8,387.4,257.7z"/>
					<path class="st5" d="M389.1,253.3l68.6-1.1c1.7,0,3.1-1.4,3-3.1l-0.5-24.2c0-1.7-1.4-3-3.1-3l-68.6,1.1c-1.7,0-3.1,1.4-3,3.1
						l0.5,24.2C386,252,387.4,253.3,389.1,253.3z"/>
					<line class="st5" x1="460.3" y1="229.7" x2="385.6" y2="231.2"/>
					<line class="st5" x1="460.3" y1="236.8" x2="385.7" y2="239"/>
					<line class="st5" x1="460.6" y1="243.8" x2="385.8" y2="245.8"/>
				</g>
				<g>
					<g>
						<path class="st11" d="M270.8,142.9l14.1,0.3c1.9,0,3.5,1.6,3.4,3.5l-0.7,34.3l-18.8-37.6C269.4,143.1,270.1,142.9,270.8,142.9
							z"/>
						<path class="st11" d="M286.6,190.7c-0.7,0.7-1.6,1.1-2.6,1.1l-14.1-0.3c-1.9,0-3.5-1.6-3.4-3.5l0.7-36.2L286.6,190.7z"/>
						<path class="st14" d="M267.2,146.3c0-1.2,0.7-2.3,1.6-2.9l18.8,37.6l-0.1,7.3c0,0.9-0.4,1.7-0.9,2.3l-19.4-38.9L267.2,146.3z"
							/>
					</g>
					<path class="st5" d="M288.4,146.7l-0.8,41.7c0,0-0.3,3.4-3.6,3.4c-3.3-0.1-15,0-15,0"/>
				</g>
				<g>
					<path class="st7" d="M481.5,298.7v-33.5l-1.8-3L357,268.1l-44-0.5l1.7,37.4c0,0,21,5.3,25.2,5.3c4.2,0,137.3-8.5,137.3-8.5
						L481.5,298.7z"/>
					<g>
						<path class="st13" d="M346.7,293.7l33.8-0.7c2.5,0,4.4-2.1,4.4-4.5l-0.2-8.8c0-2.5-2.1-4.4-4.5-4.4l-33.8,0.7
							c-2.5,0-4.4,2.1-4.4,4.5l0.2,8.8C342.2,291.8,344.2,293.8,346.7,293.7z"/>
						<ellipse class="st14" cx="367.9" cy="284" rx="5.9" ry="5.9"/>
						<ellipse class="st18" cx="376" cy="283.9" rx="4.7" ry="4.7"/>
						<line class="st5" x1="343.7" y1="278.2" x2="344" y2="291.5"/>
						<line class="st5" x1="382.5" y1="293" x2="344.7" y2="293.7"/>
					</g>
					<g>
						<path class="st13" d="M469.8,284.6l12.2-0.2l-0.3-15.6l-12.2,0.2c-2.5,0-4.5,2.1-4.4,4.6l0.1,6.5
							C465.2,282.7,467.3,284.7,469.8,284.6z"/>
						<path class="st14" d="M467.7,276.2c0.1,3.2,1.9,5.8,4.1,5.8c2.2,0,3.9-2.7,3.9-5.9c-0.1-3.2-1.9-5.8-4.1-5.8
							C469.4,270.4,467.6,273,467.7,276.2z"/>
						<path class="st18" d="M473.9,276.1c0.1,2.6,1.5,4.6,3.3,4.6c1.8,0,3.1-2.2,3.1-4.7c-0.1-2.6-1.5-4.6-3.3-4.6
							C475.3,271.4,473.9,273.5,473.9,276.1z"/>
						<line class="st5" x1="465" y1="272.2" x2="465.2" y2="281.6"/>
						<line class="st5" x1="482" y1="284.4" x2="468.4" y2="284.6"/>
					</g>
					<g>
						
							<rect x="406" y="272" transform="matrix(-0.9998 1.924852e-02 -1.924852e-02 -0.9998 852.6924 551.4264)" class="st11" width="35.4" height="15.6"/>
						<polyline class="st5" points="441.5,287.3 406.2,288 405.8,272.4 						"/>
						
							<rect x="408.4" y="273.9" transform="matrix(-0.9998 1.924923e-02 -1.924923e-02 -0.9998 852.7916 550.7133)" class="st5" width="30.7" height="11.1"/>
					</g>
					<polyline class="st5" points="478.7,263.7 358,270.1 315.1,269.5 316.5,303.3 					"/>
					<polygon class="st2" points="479.7,262.3 471.2,258.4 356.4,263 316.7,260.7 312.9,267.6 357,268.1 					"/>
					<polyline class="st5" points="481.5,298.7 339.7,307.3 319.5,303.3 					"/>
				</g>
				<polyline class="st5" points="328.1,119.8 333.6,117.6 300.2,103.7 				"/>
			</g>
			<line class="st5" x1="226.9" y1="249.7" x2="174" y2="245.7"/>
			<line class="st5" x1="242.1" y1="229.4" x2="175.7" y2="226.6"/>
			<line class="st5" x1="225.9" y1="249.6" x2="225.9" y2="267.6"/>
			<polyline class="st5" points="242.1,289.7 244.8,249.8 243.5,212.5 			"/>
			<line class="st5" x1="244.8" y1="79.7" x2="244.8" y2="212.5"/>
			<line class="st5" x1="243.5" y1="92.2" x2="55.9" y2="117.9"/>
			<line class="st5" x1="244.8" y1="201.8" x2="54.8" y2="198.8"/>
			
				<ellipse transform="matrix(0.9985 -5.477449e-02 5.477449e-02 0.9985 -8.1852 7.8702)" class="st19" cx="139.5" cy="153.3" rx="61" ry="31.1"/>
		</g>
	</g>
</g>
</svg>
