<?xml version="1.0" standalone="no"?>
<svg xmlns:xlink="http://www.w3.org/1999/xlink" id="wave" style="transform:rotate(0deg); transition: 0.3s" viewBox="0 0 1440 150" version="1.1" xmlns="http://www.w3.org/2000/svg"><defs><linearGradient id="sw-gradient-0" x1="0" x2="0" y1="1" y2="0"><stop stop-color="rgba(95.6, 178.633, 221.168, 1)" offset="0%"/><stop stop-color="rgba(105.123, 187.017, 112.116, 1)" offset="100%"/></linearGradient></defs><path style="transform:translate(0, 0px); opacity:1" fill="url(#sw-gradient-0)" d="M0,105L30,102.5C60,100,120,95,180,85C240,75,300,60,360,55C420,50,480,55,540,47.5C600,40,660,20,720,22.5C780,25,840,50,900,67.5C960,85,1020,95,1080,82.5C1140,70,1200,35,1260,37.5C1320,40,1380,80,1440,80C1500,80,1560,40,1620,37.5C1680,35,1740,70,1800,82.5C1860,95,1920,85,1980,85C2040,85,2100,95,2160,92.5C2220,90,2280,75,2340,60C2400,45,2460,30,2520,20C2580,10,2640,5,2700,12.5C2760,20,2820,40,2880,60C2940,80,3000,100,3060,95C3120,90,3180,60,3240,55C3300,50,3360,70,3420,72.5C3480,75,3540,60,3600,60C3660,60,3720,75,3780,90C3840,105,3900,120,3960,117.5C4020,115,4080,95,4140,82.5C4200,70,4260,65,4290,62.5L4320,60L4320,150L4290,150C4260,150,4200,150,4140,150C4080,150,4020,150,3960,150C3900,150,3840,150,3780,150C3720,150,3660,150,3600,150C3540,150,3480,150,3420,150C3360,150,3300,150,3240,150C3180,150,3120,150,3060,150C3000,150,2940,150,2880,150C2820,150,2760,150,2700,150C2640,150,2580,150,2520,150C2460,150,2400,150,2340,150C2280,150,2220,150,2160,150C2100,150,2040,150,1980,150C1920,150,1860,150,1800,150C1740,150,1680,150,1620,150C1560,150,1500,150,1440,150C1380,150,1320,150,1260,150C1200,150,1140,150,1080,150C1020,150,960,150,900,150C840,150,780,150,720,150C660,150,600,150,540,150C480,150,420,150,360,150C300,150,240,150,180,150C120,150,60,150,30,150L0,150Z"/></svg>