<?xml version="1.0" encoding="UTF-8"?>
<svg xmlns="http://www.w3.org/2000/svg" xmlns:xlink="http://www.w3.org/1999/xlink" width="px" height="px" viewBox="0 0 500 500" version="1.1">
<g id="surface1">
<path style=" stroke:none;fill-rule:nonzero;fill:rgb(29.411765%,52.156863%,52.941176%);fill-opacity:1;" d="M 206.101562 100.648438 C 231.148438 92.199219 259.300781 93.351562 283.550781 103.949219 C 299.351562 110.75 313.398438 121.398438 324.300781 134.699219 C 337.101562 150.25 345.449219 169.449219 348 189.449219 C 350.699219 210.050781 347.050781 230.949219 340.648438 250.601562 C 334.050781 270.800781 324.449219 289.898438 313.601562 308.101562 C 302.75 326.199219 290.5 343.398438 277.398438 359.949219 C 265.75 374.550781 253.550781 388.648438 240.449219 401.949219 C 227.75 389 215.851562 375.199219 204.5 361 C 192.5 345.949219 181.25 330.25 171.050781 313.898438 C 159.699219 295.601562 149.601562 276.449219 142.25 256.148438 C 138.199219 244.851562 135 233.199219 133.300781 221.25 C 130.851562 204.5 131.800781 187.148438 136.949219 171 C 142.148438 154.25 151.601562 138.851562 164 126.550781 C 175.851562 114.898438 190.300781 105.898438 206.101562 100.648438 M 236.199219 135.75 C 222.148438 136.601562 208.449219 142.101562 197.699219 151.199219 C 184.648438 162.050781 176.050781 178.050781 174.25 194.949219 C 171.949219 214.449219 178.949219 234.800781 192.75 248.800781 C 204.949219 261.449219 222.351562 268.898438 239.949219 268.898438 C 256 269.101562 272 263.199219 284.050781 252.648438 C 298.601562 240.199219 307.25 221.199219 307.050781 202.050781 C 307.101562 182.800781 298.25 163.851562 283.5 151.5 C 270.601562 140.351562 253.25 134.601562 236.199219 135.75 Z M 236.199219 135.75 "/>
<path style=" stroke:none;fill-rule:nonzero;fill:rgb(10.196078%,14.509804%,26.27451%);fill-opacity:1;" d="M 199.851562 251.601562 C 199.898438 246.550781 204.199219 241.898438 209.351562 242 C 228.199219 242 247.050781 242 265.898438 242 C 270.949219 242 275.148438 246.601562 275.199219 251.601562 C 250.101562 251.648438 224.949219 251.648438 199.851562 251.601562 Z M 199.851562 251.601562 "/>
<path style=" stroke:none;fill-rule:nonzero;fill:rgb(99.607843%,8.627451%,13.333333%);fill-opacity:1;" d="M 213.851562 163.851562 C 213.851562 161.351562 216.050781 159.101562 218.601562 159.101562 C 230.050781 159.101562 241.5 159.101562 252.949219 159.101562 C 255.449219 159 257.800781 161.050781 258 163.550781 C 258.050781 166.050781 258 168.601562 258.050781 171.101562 C 259.898438 172.101562 261.851562 172.949219 263.699219 173.949219 C 265.648438 175.351562 266.75 177.648438 268.449219 179.25 C 270.949219 180.5 274.101562 180.851562 275.898438 183.148438 C 277.75 185.398438 277.648438 188.75 276.050781 191.148438 C 279.351562 194.601562 282 198.75 283.351562 203.300781 C 285.75 210.699219 285.601562 219.101562 281.898438 226.050781 C 280.25 229.550781 278.398438 233.25 274.949219 235.351562 C 272 237.199219 268.199219 237.398438 264.898438 236.449219 C 262.601562 235.75 260.550781 234.148438 259.398438 232.050781 C 258.601562 230.648438 258.25 229.101562 257.949219 227.601562 C 257.949219 230.300781 258 233.050781 257.949219 235.75 C 257.949219 237.601562 256.699219 239.300781 255.050781 240.050781 C 254.199219 240.449219 253.25 240.5 252.300781 240.449219 C 241.050781 240.398438 229.800781 240.449219 218.550781 240.449219 C 215.949219 240.449219 213.75 238.050781 213.800781 235.449219 C 213.851562 211.601562 213.851562 187.75 213.851562 163.851562 Z M 222.949219 166.351562 C 220.898438 166.851562 219.300781 168.75 219.300781 170.851562 C 219.25 174.300781 219.300781 177.800781 219.300781 181.25 C 219.300781 182.351562 219.199219 183.5 219.550781 184.550781 C 220.148438 186.5 222.101562 187.898438 224.148438 187.851562 C 231.949219 187.851562 239.75 187.851562 247.5 187.851562 C 249.949219 187.898438 252.199219 185.800781 252.300781 183.351562 C 252.351562 179.699219 252.300781 176.050781 252.300781 172.351562 C 252.300781 171.25 252.351562 170.101562 251.949219 169.101562 C 251.25 167.351562 249.398438 166.148438 247.5 166.148438 C 240.25 166.148438 232.949219 166.148438 225.699219 166.148438 C 224.75 166.25 223.851562 166.148438 222.949219 166.351562 Z M 258 177.050781 C 258 187.648438 258 198.300781 258 208.898438 C 260 211 261.398438 213.648438 261.851562 216.5 C 262.25 219.351562 262.800781 222.199219 263 225.050781 C 263.25 227.101562 263.5 229.5 265.25 230.851562 C 266.898438 231.851562 268.949219 232 270.800781 231.550781 C 273 230.898438 274.449219 228.949219 275.5 227.050781 C 277.199219 223.851562 278.949219 220.550781 279.398438 216.898438 C 280.351562 209.898438 278.398438 202.5 274 196.898438 C 272.75 198.148438 270.851562 198 269.25 198.351562 C 267.800781 198.648438 266.25 198.398438 265.199219 197.300781 C 263.648438 195.898438 264 193.601562 263.5 191.75 C 263.25 189.898438 262.300781 188.148438 262.648438 186.25 C 263 184.949219 263.449219 183.648438 263.898438 182.398438 C 263.050781 181.351562 262.300781 180.351562 261.449219 179.25 C 260.699219 178.101562 258.800781 177.550781 258 177.050781 Z M 258 177.050781 "/>
<path style=" stroke:none;fill-rule:nonzero;fill:rgb(64.705882%,65.098039%,65.882353%);fill-opacity:1;" d="M 258 177.050781 C 258.199219 177.148438 258.351562 177.25 258.449219 177.300781 C 258.449219 177.300781 258.648438 177.398438 259.300781 177.699219 C 259.300781 177.699219 260.351562 178.25 260.601562 178.398438 C 260.800781 178.550781 261 178.75 261.449219 179.199219 C 261.800781 179.75 263.75 182.199219 263.75 182.199219 L 263.898438 182.398438 L 268.398438 179.300781 C 268.398438 179.300781 266.800781 177.449219 266.398438 176.949219 C 266.148438 176.601562 265.5 175.800781 264.851562 175.050781 C 264.300781 174.5 263.699219 173.949219 263.300781 173.800781 C 262.851562 173.550781 263.199219 173.699219 261.148438 172.699219 C 261.148438 172.699219 260.300781 172.25 258 171.148438 C 258 171.148438 258 177.050781 258 177.050781 Z M 258 177.050781 "/>
<path style=" stroke:none;fill-rule:nonzero;fill:rgb(29.411765%,29.803922%,29.803922%);fill-opacity:1;" d="M 274 196.898438 C 274 196.898438 274.851562 197.851562 276 199.851562 C 277.550781 202.601562 279.550781 207.199219 279.648438 213.851562 C 279.648438 213.851562 279.648438 216.800781 278.601562 220.25 C 278.199219 221.648438 274.648438 228.351562 274 229.25 C 273.050781 230.550781 270.851562 231.851562 268.699219 231.800781 C 268.398438 231.800781 268.148438 231.800781 267.851562 231.75 C 266.050781 231.398438 265.101562 230.949219 264.398438 229.949219 C 264.148438 229.550781 263.898438 229.101562 263.699219 228.550781 C 262.949219 226.398438 263.101562 223.648438 262.300781 219.25 C 262.148438 218.300781 262.050781 217.5 261.949219 216.800781 C 261.550781 214.25 261.050781 213.351562 260.449219 212.148438 C 259.601562 210.5 258.101562 208.648438 258.101562 208.648438 L 258.050781 227.800781 C 258.050781 227.800781 258.949219 233.550781 262.699219 235.398438 C 262.851562 235.449219 262.949219 235.550781 263 235.601562 C 263.148438 235.699219 263.25 235.75 263.449219 235.851562 C 263.949219 236.101562 264.5 236.300781 265.050781 236.449219 C 268.199219 237.398438 271.851562 237.5 275.449219 235.050781 C 280.101562 231.898438 283.449219 224 284.550781 218.601562 C 285.050781 216.25 285.148438 213.148438 284.851562 210.050781 C 284.449219 205.800781 282.949219 201.398438 281.75 199.101562 C 281.25 198.148438 281.101562 197.800781 280.75 197.199219 C 279.351562 194.851562 278.449219 193.898438 278.449219 193.898438 L 278.148438 193.5 L 277.800781 193.050781 L 277.351562 192.5 L 276.699219 191.75 L 276.148438 191.148438 Z M 274 196.898438 "/>
</g>
</svg>
