<?xml version="1.0" encoding="UTF-8"?>
<svg xmlns="http://www.w3.org/2000/svg" xmlns:xlink="http://www.w3.org/1999/xlink" width="32px" height="32px" viewBox="0 0 32 32" version="1.1">
<g id="surface1">
<path style=" stroke:none;fill-rule:nonzero;fill:rgb(29.411765%,52.156863%,52.941176%);fill-opacity:1;" d="M 13.191406 6.441406 C 14.792969 5.902344 16.59375 5.972656 18.148438 6.652344 C 19.160156 7.089844 20.058594 7.769531 20.753906 8.621094 C 21.574219 9.617188 22.109375 10.84375 22.273438 12.125 C 22.445312 13.441406 22.210938 14.78125 21.800781 16.039062 C 21.378906 17.332031 20.765625 18.554688 20.070312 19.71875 C 19.375 20.875 18.59375 21.976562 17.753906 23.035156 C 17.007812 23.972656 16.226562 24.875 15.390625 25.726562 C 14.574219 24.894531 13.8125 24.011719 13.089844 23.105469 C 12.320312 22.140625 11.601562 21.136719 10.945312 20.089844 C 10.222656 18.917969 9.574219 17.691406 9.105469 16.394531 C 8.84375 15.671875 8.640625 14.925781 8.53125 14.160156 C 8.375 13.089844 8.433594 11.976562 8.765625 10.945312 C 9.097656 9.871094 9.703125 8.886719 10.496094 8.097656 C 11.253906 7.355469 12.179688 6.777344 13.191406 6.441406 M 15.117188 8.6875 C 14.21875 8.742188 13.339844 9.09375 12.652344 9.675781 C 11.816406 10.371094 11.265625 11.394531 11.152344 12.476562 C 11.003906 13.726562 11.453125 15.027344 12.335938 15.921875 C 13.117188 16.734375 14.230469 17.210938 15.355469 17.210938 C 16.382812 17.222656 17.40625 16.84375 18.179688 16.167969 C 19.109375 15.371094 19.664062 14.15625 19.652344 12.929688 C 19.65625 11.699219 19.089844 10.488281 18.144531 9.695312 C 17.320312 8.980469 16.207031 8.613281 15.117188 8.6875 Z M 15.117188 8.6875 "/>
<path style=" stroke:none;fill-rule:nonzero;fill:rgb(10.196078%,14.509804%,26.27451%);fill-opacity:1;" d="M 12.789062 16.101562 C 12.792969 15.777344 13.070312 15.480469 13.398438 15.488281 C 14.605469 15.488281 15.8125 15.488281 17.019531 15.488281 C 17.339844 15.488281 17.609375 15.78125 17.613281 16.101562 C 16.007812 16.105469 14.398438 16.105469 12.789062 16.101562 Z M 12.789062 16.101562 "/>
<path style=" stroke:none;fill-rule:nonzero;fill:rgb(99.607843%,8.627451%,13.333333%);fill-opacity:1;" d="M 13.6875 10.488281 C 13.6875 10.328125 13.828125 10.183594 13.992188 10.183594 C 14.722656 10.183594 15.457031 10.183594 16.1875 10.183594 C 16.347656 10.175781 16.5 10.308594 16.511719 10.46875 C 16.515625 10.628906 16.511719 10.789062 16.515625 10.949219 C 16.632812 11.015625 16.757812 11.070312 16.875 11.132812 C 17 11.222656 17.070312 11.371094 17.179688 11.472656 C 17.339844 11.550781 17.542969 11.574219 17.65625 11.722656 C 17.777344 11.867188 17.769531 12.078125 17.667969 12.234375 C 17.878906 12.453125 18.046875 12.71875 18.132812 13.011719 C 18.289062 13.484375 18.277344 14.023438 18.042969 14.46875 C 17.9375 14.691406 17.816406 14.929688 17.597656 15.0625 C 17.40625 15.179688 17.164062 15.195312 16.953125 15.132812 C 16.804688 15.089844 16.675781 14.984375 16.601562 14.851562 C 16.550781 14.761719 16.527344 14.664062 16.507812 14.566406 C 16.507812 14.738281 16.511719 14.914062 16.507812 15.089844 C 16.507812 15.207031 16.429688 15.316406 16.324219 15.363281 C 16.269531 15.390625 16.207031 15.390625 16.148438 15.390625 C 15.425781 15.386719 14.707031 15.390625 13.988281 15.390625 C 13.820312 15.390625 13.679688 15.234375 13.683594 15.070312 C 13.6875 13.542969 13.6875 12.015625 13.6875 10.488281 Z M 14.269531 10.644531 C 14.136719 10.679688 14.035156 10.800781 14.035156 10.933594 C 14.03125 11.15625 14.035156 11.378906 14.035156 11.601562 C 14.035156 11.671875 14.027344 11.742188 14.050781 11.8125 C 14.089844 11.9375 14.214844 12.027344 14.34375 12.023438 C 14.84375 12.023438 15.34375 12.023438 15.839844 12.023438 C 15.996094 12.027344 16.140625 11.890625 16.148438 11.734375 C 16.152344 11.5 16.148438 11.265625 16.148438 11.03125 C 16.148438 10.960938 16.152344 10.886719 16.125 10.824219 C 16.078125 10.710938 15.960938 10.632812 15.839844 10.632812 C 15.375 10.632812 14.910156 10.632812 14.445312 10.632812 C 14.382812 10.640625 14.328125 10.632812 14.269531 10.644531 Z M 16.511719 11.332031 C 16.511719 12.007812 16.511719 12.691406 16.511719 13.371094 C 16.640625 13.503906 16.730469 13.671875 16.757812 13.855469 C 16.785156 14.039062 16.820312 14.222656 16.832031 14.402344 C 16.847656 14.535156 16.863281 14.6875 16.976562 14.773438 C 17.082031 14.839844 17.210938 14.847656 17.332031 14.820312 C 17.472656 14.777344 17.566406 14.652344 17.632812 14.53125 C 17.742188 14.328125 17.851562 14.113281 17.882812 13.882812 C 17.941406 13.433594 17.816406 12.960938 17.535156 12.601562 C 17.457031 12.679688 17.335938 12.671875 17.230469 12.695312 C 17.140625 12.714844 17.039062 12.699219 16.972656 12.628906 C 16.875 12.539062 16.894531 12.390625 16.863281 12.273438 C 16.847656 12.152344 16.789062 12.042969 16.808594 11.921875 C 16.832031 11.835938 16.859375 11.753906 16.890625 11.671875 C 16.835938 11.605469 16.789062 11.542969 16.734375 11.472656 C 16.683594 11.398438 16.5625 11.363281 16.511719 11.332031 Z M 16.511719 11.332031 "/>
<path style=" stroke:none;fill-rule:nonzero;fill:rgb(64.705882%,65.098039%,65.882353%);fill-opacity:1;" d="M 16.511719 11.332031 C 16.523438 11.335938 16.535156 11.34375 16.539062 11.347656 C 16.539062 11.347656 16.554688 11.355469 16.59375 11.371094 C 16.59375 11.371094 16.664062 11.40625 16.679688 11.417969 C 16.691406 11.425781 16.703125 11.441406 16.734375 11.46875 C 16.753906 11.503906 16.878906 11.660156 16.878906 11.660156 L 16.890625 11.671875 L 17.175781 11.476562 C 17.175781 11.476562 17.074219 11.355469 17.050781 11.324219 C 17.035156 11.300781 16.992188 11.25 16.949219 11.203125 C 16.914062 11.167969 16.875 11.132812 16.851562 11.125 C 16.824219 11.105469 16.84375 11.117188 16.714844 11.054688 C 16.714844 11.054688 16.660156 11.023438 16.511719 10.953125 C 16.511719 10.953125 16.511719 11.332031 16.511719 11.332031 Z M 16.511719 11.332031 "/>
<path style=" stroke:none;fill-rule:nonzero;fill:rgb(29.411765%,29.803922%,29.803922%);fill-opacity:1;" d="M 17.535156 12.601562 C 17.535156 12.601562 17.589844 12.664062 17.664062 12.789062 C 17.761719 12.964844 17.890625 13.261719 17.898438 13.6875 C 17.898438 13.6875 17.898438 13.875 17.832031 14.097656 C 17.804688 14.1875 17.578125 14.613281 17.535156 14.671875 C 17.476562 14.753906 17.335938 14.839844 17.195312 14.835938 C 17.175781 14.835938 17.160156 14.835938 17.140625 14.832031 C 17.027344 14.808594 16.964844 14.78125 16.921875 14.71875 C 16.90625 14.691406 16.890625 14.664062 16.875 14.628906 C 16.828125 14.488281 16.839844 14.3125 16.789062 14.03125 C 16.777344 13.972656 16.769531 13.921875 16.765625 13.875 C 16.738281 13.710938 16.707031 13.65625 16.667969 13.578125 C 16.613281 13.472656 16.519531 13.355469 16.519531 13.355469 L 16.515625 14.578125 C 16.515625 14.578125 16.574219 14.945312 16.8125 15.066406 C 16.824219 15.070312 16.828125 15.074219 16.832031 15.078125 C 16.839844 15.085938 16.847656 15.089844 16.859375 15.09375 C 16.894531 15.109375 16.929688 15.125 16.964844 15.132812 C 17.164062 15.195312 17.398438 15.199219 17.628906 15.042969 C 17.925781 14.839844 18.140625 14.335938 18.210938 13.992188 C 18.242188 13.839844 18.25 13.640625 18.230469 13.441406 C 18.203125 13.171875 18.109375 12.890625 18.03125 12.742188 C 18 12.679688 17.992188 12.660156 17.96875 12.621094 C 17.878906 12.46875 17.820312 12.410156 17.820312 12.410156 L 17.800781 12.382812 L 17.777344 12.355469 L 17.75 12.320312 L 17.707031 12.273438 L 17.671875 12.234375 Z M 17.535156 12.601562 "/>
</g>
</svg>
