<?xml version="1.0" encoding="UTF-8"?>
<svg xmlns="http://www.w3.org/2000/svg" xmlns:xlink="http://www.w3.org/1999/xlink" width="px" height="px" viewBox="0 0 500 500" version="1.1">
<g id="surface1">
<path style=" stroke:none;fill-rule:nonzero;fill:rgb(0%,64.313725%,100%);fill-opacity:1;" d="M 204.601562 90.148438 C 229.648438 81.699219 257.800781 82.851562 282.050781 93.449219 C 297.851562 100.25 311.898438 110.898438 322.800781 124.199219 C 335.601562 139.75 343.949219 158.949219 346.5 178.949219 C 349.199219 199.550781 345.550781 220.449219 339.148438 240.101562 C 332.550781 260.300781 322.949219 279.398438 312.101562 297.601562 C 301.25 315.699219 289 332.898438 275.898438 349.449219 C 264.25 364.050781 252.050781 378.148438 238.949219 391.449219 C 226.25 378.5 214.351562 364.699219 203 350.5 C 191 335.449219 179.75 319.75 169.550781 303.398438 C 158.199219 285.101562 148.101562 265.949219 140.75 245.648438 C 136.699219 234.351562 133.5 222.699219 131.800781 210.75 C 129.351562 194 130.300781 176.648438 135.449219 160.5 C 140.648438 143.75 150.101562 128.351562 162.5 116.050781 C 174.351562 104.398438 188.800781 95.398438 204.601562 90.148438 M 234.699219 125.25 C 220.648438 126.101562 206.949219 131.601562 196.199219 140.699219 C 183.148438 151.550781 174.550781 167.550781 172.75 184.449219 C 170.449219 203.949219 177.449219 224.300781 191.25 238.300781 C 203.449219 250.949219 220.851562 258.398438 238.449219 258.398438 C 254.5 258.601562 270.5 252.699219 282.550781 242.148438 C 297.101562 229.699219 305.75 210.699219 305.550781 191.550781 C 305.601562 172.300781 296.75 153.351562 282 141 C 269.101562 129.851562 251.75 124.101562 234.699219 125.25 Z M 234.699219 125.25 "/>
<path style=" stroke:none;fill-rule:nonzero;fill:rgb(10.196078%,14.509804%,26.27451%);fill-opacity:1;" d="M 198.351562 241.101562 C 198.398438 236.050781 202.699219 231.398438 207.851562 231.5 C 226.699219 231.5 245.550781 231.5 264.398438 231.5 C 269.449219 231.5 273.648438 236.101562 273.699219 241.101562 C 248.601562 241.148438 223.449219 241.148438 198.351562 241.101562 Z M 198.351562 241.101562 "/>
<path style=" stroke:none;fill-rule:nonzero;fill:rgb(99.607843%,8.627451%,13.333333%);fill-opacity:1;" d="M 212.351562 153.351562 C 212.351562 150.851562 214.550781 148.601562 217.101562 148.601562 C 228.550781 148.601562 240 148.601562 251.449219 148.601562 C 253.949219 148.5 256.300781 150.550781 256.5 153.050781 C 256.550781 155.550781 256.5 158.101562 256.550781 160.601562 C 258.398438 161.601562 260.351562 162.449219 262.199219 163.449219 C 264.148438 164.851562 265.25 167.148438 266.949219 168.75 C 269.449219 170 272.601562 170.351562 274.398438 172.648438 C 276.25 174.898438 276.148438 178.25 274.550781 180.648438 C 277.851562 184.101562 280.5 188.25 281.851562 192.800781 C 284.25 200.199219 284.101562 208.601562 280.398438 215.550781 C 278.75 219.050781 276.898438 222.75 273.449219 224.851562 C 270.5 226.699219 266.699219 226.898438 263.398438 225.949219 C 261.101562 225.25 259.050781 223.648438 257.898438 221.550781 C 257.101562 220.148438 256.75 218.601562 256.449219 217.101562 C 256.449219 219.800781 256.5 222.550781 256.449219 225.25 C 256.449219 227.101562 255.199219 228.800781 253.550781 229.550781 C 252.699219 229.949219 251.75 230 250.800781 229.949219 C 239.550781 229.898438 228.300781 229.949219 217.050781 229.949219 C 214.449219 229.949219 212.25 227.550781 212.300781 224.949219 C 212.351562 201.101562 212.351562 177.25 212.351562 153.351562 Z M 221.449219 155.851562 C 219.398438 156.351562 217.800781 158.25 217.800781 160.351562 C 217.75 163.800781 217.800781 167.300781 217.800781 170.75 C 217.800781 171.851562 217.699219 173 218.050781 174.050781 C 218.648438 176 220.601562 177.398438 222.648438 177.351562 C 230.449219 177.351562 238.25 177.351562 246 177.351562 C 248.449219 177.398438 250.699219 175.300781 250.800781 172.851562 C 250.851562 169.199219 250.800781 165.550781 250.800781 161.851562 C 250.800781 160.75 250.851562 159.601562 250.449219 158.601562 C 249.75 156.851562 247.898438 155.648438 246 155.648438 C 238.75 155.648438 231.449219 155.648438 224.199219 155.648438 C 223.25 155.75 222.351562 155.648438 221.449219 155.851562 Z M 256.5 166.550781 C 256.5 177.148438 256.5 187.800781 256.5 198.398438 C 258.5 200.5 259.898438 203.148438 260.351562 206 C 260.75 208.851562 261.300781 211.699219 261.5 214.550781 C 261.75 216.601562 262 219 263.75 220.351562 C 265.398438 221.351562 267.449219 221.5 269.300781 221.050781 C 271.5 220.398438 272.949219 218.449219 274 216.550781 C 275.699219 213.351562 277.449219 210.050781 277.898438 206.398438 C 278.851562 199.398438 276.898438 192 272.5 186.398438 C 271.25 187.648438 269.351562 187.5 267.75 187.851562 C 266.300781 188.148438 264.75 187.898438 263.699219 186.800781 C 262.148438 185.398438 262.5 183.101562 262 181.25 C 261.75 179.398438 260.800781 177.648438 261.148438 175.75 C 261.5 174.449219 261.949219 173.148438 262.398438 171.898438 C 261.550781 170.851562 260.800781 169.851562 259.949219 168.75 C 259.199219 167.601562 257.300781 167.050781 256.5 166.550781 Z M 256.5 166.550781 "/>
<path style=" stroke:none;fill-rule:nonzero;fill:rgb(64.705882%,65.098039%,65.882353%);fill-opacity:1;" d="M 256.5 166.550781 C 256.699219 166.648438 256.851562 166.75 256.949219 166.800781 C 256.949219 166.800781 257.148438 166.898438 257.800781 167.199219 C 257.800781 167.199219 258.851562 167.75 259.101562 167.898438 C 259.300781 168.050781 259.5 168.25 259.949219 168.699219 C 260.300781 169.25 262.25 171.699219 262.25 171.699219 L 262.398438 171.898438 L 266.898438 168.800781 C 266.898438 168.800781 265.300781 166.949219 264.898438 166.449219 C 264.648438 166.101562 264 165.300781 263.351562 164.550781 C 262.800781 164 262.199219 163.449219 261.800781 163.300781 C 261.351562 163.050781 261.699219 163.199219 259.648438 162.199219 C 259.648438 162.199219 258.800781 161.75 256.5 160.648438 C 256.5 160.648438 256.5 166.550781 256.5 166.550781 Z M 256.5 166.550781 "/>
<path style=" stroke:none;fill-rule:nonzero;fill:rgb(29.411765%,29.803922%,29.803922%);fill-opacity:1;" d="M 272.5 186.398438 C 272.5 186.398438 273.351562 187.351562 274.5 189.351562 C 276.050781 192.101562 278.050781 196.699219 278.148438 203.351562 C 278.148438 203.351562 278.148438 206.300781 277.101562 209.75 C 276.699219 211.148438 273.148438 217.851562 272.5 218.75 C 271.550781 220.050781 269.351562 221.351562 267.199219 221.300781 C 266.898438 221.300781 266.648438 221.300781 266.351562 221.25 C 264.550781 220.898438 263.601562 220.449219 262.898438 219.449219 C 262.648438 219.050781 262.398438 218.601562 262.199219 218.050781 C 261.449219 215.898438 261.601562 213.148438 260.800781 208.75 C 260.648438 207.800781 260.550781 207 260.449219 206.300781 C 260.050781 203.75 259.550781 202.851562 258.949219 201.648438 C 258.101562 200 256.601562 198.148438 256.601562 198.148438 L 256.550781 217.300781 C 256.550781 217.300781 257.449219 223.050781 261.199219 224.898438 C 261.351562 224.949219 261.449219 225.050781 261.5 225.101562 C 261.648438 225.199219 261.75 225.25 261.949219 225.351562 C 262.449219 225.601562 263 225.800781 263.550781 225.949219 C 266.699219 226.898438 270.351562 227 273.949219 224.550781 C 278.601562 221.398438 281.949219 213.5 283.050781 208.101562 C 283.550781 205.75 283.648438 202.648438 283.351562 199.550781 C 282.949219 195.300781 281.449219 190.898438 280.25 188.601562 C 279.75 187.648438 279.601562 187.300781 279.25 186.699219 C 277.851562 184.351562 276.949219 183.398438 276.949219 183.398438 L 276.648438 183 L 276.300781 182.550781 L 275.851562 182 L 275.199219 181.25 L 274.648438 180.648438 Z M 272.5 186.398438 "/>
</g>
</svg>
