<?xml version="1.0" encoding="iso-8859-1"?>
<!-- Generator: Adobe Illustrator 19.0.0, SVG Export Plug-In . SVG Version: 6.00 Build 0)  -->
<svg version="1.1" id="Layer_1" xmlns="http://www.w3.org/2000/svg" xmlns:xlink="http://www.w3.org/1999/xlink" x="0px" y="0px"
	 viewBox="0 0 512 512" style="enable-background:new 0 0 512 512;" xml:space="preserve" width="60px" height="60px">
<g>
	<polygon style="fill:#FFD311;" points="432.379,214.204 297.796,214.204 297.378,214.1 305.946,172.408 423.184,172.408 
		424.647,172.095 	"/>
	<polygon style="fill:#FFD311;" points="247.536,120.163 254.746,167.184 69.172,167.184 76.382,120.163 	"/>
</g>
<g>
	<rect x="339.592" y="386.612" style="fill:#E7ECED;" width="73.143" height="62.694"/>
	<rect x="120.163" y="381.388" style="fill:#E7ECED;" width="83.592" height="67.918"/>
</g>
<g>
	<polygon style="fill:#7E8488;" points="417.959,135.837 424.647,172.095 423.184,172.408 305.946,172.408 313.469,135.837 	"/>
	<polygon style="fill:#7E8488;" points="432.379,214.204 475.429,449.306 412.735,449.306 412.735,386.612 339.592,386.612 
		339.592,449.306 297.796,449.306 277.002,313.051 297.378,214.1 297.796,214.204 	"/>
</g>
<g>
	<polygon style="fill:#AFB6BB;" points="238.759,62.694 247.536,120.163 76.382,120.163 85.159,62.694 	"/>
	<polygon style="fill:#AFB6BB;" points="277.002,313.051 297.796,449.306 203.755,449.306 203.755,381.388 120.163,381.388 
		120.163,449.306 26.122,449.306 69.172,167.184 254.746,167.184 	"/>
</g>
<path style="fill:#6C7175;" d="M279.082,326.68l18.714,122.626h41.796v-62.694h73.143v62.694h62.694l-11.602-63.359
	C396.077,382.144,333.062,360.897,279.082,326.68z"/>
<path style="fill:#A0A7AB;" d="M137.132,167.184h-67.96l-43.05,282.122h94.041v-67.918h83.592v67.918h94.041L279.082,326.68
	C218.061,287.999,168.595,232.772,137.132,167.184z"/>
<path d="M481.96,441.469l-28.481-155.537l-15.417,2.822l27.965,152.715h-45.455v-62.694h-88.816v62.694h-27.228l-19.583-128.248
	l18.777-91.181h122.127l8.389,45.816l15.417-2.822L424.482,128H307.081L278.14,268.671L245.489,54.857h-83.53h-83.53L47.872,254.818
	l15.494,2.366l12.539-82.163h172.11l40.658,266.449h-77.081v-67.918h-99.265v67.918H35.245l25.729-168.61l-15.494-2.366
	L19.391,441.469H0v15.673h512v-15.673H481.96z M422.968,206.367H306.947l5.379-26.122h105.837L422.968,206.367z M411.436,143.673
	l3.844,20.898h-99.725l4.304-20.898H411.436z M240.809,128l4.807,31.347H78.303L83.109,128H240.809z M161.959,70.531h70.07
	l6.383,41.796H85.506l6.383-41.796H161.959z M347.429,394.449h20.898v28.735H384v-28.735h20.898v47.02h-57.469V394.449z
	 M128,389.224h26.122v33.959h15.673v-33.959h26.122v52.245H128V389.224z"/>
<rect x="94.041" y="316.082" width="20.898" height="15.673"/>
<rect x="114.939" y="295.184" width="20.898" height="15.673"/>
<rect x="313.469" y="331.755" width="20.898" height="15.673"/>
<rect x="334.367" y="310.857" width="20.898" height="15.673"/>
<rect x="104.49" y="86.204" width="20.898" height="15.673"/>
<rect x="198.531" y="86.204" width="20.898" height="15.673"/>
<g>
	<polygon style="fill:#FFFFFF;" points="86.243,249.996 101.839,251.555 106.358,206.367 130.612,206.367 130.612,190.694 
		92.173,190.694 	"/>
	<polygon style="fill:#FFFFFF;" points="355.265,242.939 328.248,242.939 316.316,290.671 331.521,294.472 340.486,258.612 
		355.265,258.612 	"/>
</g>
<g>
</g>
<g>
</g>
<g>
</g>
<g>
</g>
<g>
</g>
<g>
</g>
<g>
</g>
<g>
</g>
<g>
</g>
<g>
</g>
<g>
</g>
<g>
</g>
<g>
</g>
<g>
</g>
<g>
</g>
</svg>
