<?xml version='1.0' encoding='iso-8859-1'?>
<svg version="1.1" xmlns="http://www.w3.org/2000/svg" viewBox="0 0 512 512" xmlns:xlink="http://www.w3.org/1999/xlink" enable-background="new 0 0 512 512">
  <g>
    <path d="m448,448h-24.322c-4.581-16-8.732-27.801-12.261-38.309-18.398-54.757-27.417-72.791-27.417-202.103 0-17.672-14.328-31.588-32-31.588h-191.989c-17.672,0-32,13.504-32,31.176 0,126.141-7.438,147.709-25.414,198.834-4.053,11.515-8.827,25.99-14.116,41.99h-24.481c-17.672,0-32,14.328-32,32s14.328,32 32,32h47.974c0.018,0 0.035,0 0.053,0 0.017,0 0.032,0 0.049,0h335.924c17.672,0 32-14.328 32-32s-14.328-32-32-32zm-191.988-150.867c10.61,0 19.188,8.688 19.188,19.422s-8.577,19.453-19.188,19.453c-10.625,0-19.186-8.719-19.186-19.453-0.001-10.735 8.561-19.422 19.186-19.422zm-45.48-57.813l27.515,48.721c-10.73,6.299-17.965,15.959-17.965,31.959h-57.106c0.544-32 19.559-64.965 47.556-80.68zm45.47,173.35c-17.057,0-32.991-4.662-46.74-12.67l28.775-50.475c5.313,3.104 11.418,4.91 17.965,4.91 6.547,0 12.652-1.807 17.965-4.91l28.775,50.475c-13.749,8.008-29.683,12.67-46.74,12.67zm35.94-92.67c0-16-7.235-26.145-17.965-32.441l27.515-47.756c27.997,15.715 47.012,48.197 47.557,80.197h-57.107z"/>
    <path d="m176,144h152c30.875,0 56-25.125 56-56s-25.125-56-56-56c-2.69,0-5.355,0.297-8,0.691v0.047c-2.914,0.422-5.74,1.098-8.488,1.949-0.166,0.051-0.338,0.078-0.503,0.133-20.052,6.414-35.116,23.799-38.202,45.18-0.38-2.635-0.807-5.26-0.807-8 0-20.984 11.601-39.113 28.701-48.641-13.278-14.457-32.138-23.359-52.701-23.359-31.094,0-57.867,20.031-67.719,48.195-27.758-2.398-52.281,19.907-52.281,47.805 0,26.469 21.531,48 48,48z"/>
  </g>
</svg>
