<?xml version="1.0" encoding="UTF-8" ?>
<!DOCTYPE svg PUBLIC "-//W3C//DTD SVG 1.1//EN" "http://www.w3.org/Graphics/SVG/1.1/DTD/svg11.dtd">
<svg width="60px" height="60px" viewBox="0 0 256 256" version="1.1" xmlns="http://www.w3.org/2000/svg">
<g id="#000000ff">
<path fill="#000000" opacity="1.00" d=" M 76.01 21.02 C 75.56 18.63 77.32 15.92 79.91 16.03 C 90.58 16.21 101.28 17.68 111.55 20.66 C 121.41 23.70 131.72 28.79 136.65 38.38 C 141.99 48.57 140.21 60.80 136.31 71.17 C 138.87 73.61 141.42 76.05 144.00 78.45 C 146.59 76.05 149.15 73.62 151.69 71.17 C 147.86 61.01 146.07 49.13 151.00 39.03 C 155.06 30.54 163.53 25.28 172.08 22.14 C 183.29 18.08 195.24 16.44 207.10 16.01 C 209.46 15.60 212.06 17.43 211.96 19.93 C 211.82 29.43 210.55 38.93 208.24 48.15 C 205.35 58.93 200.54 70.52 190.32 76.23 C 180.36 82.01 168.00 80.42 157.65 76.56 C 154.47 79.69 150.95 82.55 148.06 85.94 C 147.89 91.96 148.05 97.98 148.00 104.00 C 173.00 104.01 198.00 103.99 222.99 104.00 C 225.46 103.61 227.88 105.50 228.12 107.97 C 227.45 112.80 224.50 117.07 224.01 121.93 C 223.96 157.34 224.07 192.75 223.95 228.15 C 224.26 232.62 216.87 233.33 216.13 229.02 C 215.66 200.97 216.41 172.87 215.75 144.82 C 209.73 164.48 202.91 183.89 196.61 203.47 C 196.08 205.69 194.65 208.21 192.00 207.97 C 145.48 208.05 98.96 207.97 52.45 208.01 C 46.96 208.00 41.48 208.00 36.00 208.00 C 36.00 216.00 36.00 224.00 36.00 232.00 C 86.67 232.00 137.33 232.00 188.00 232.00 C 188.01 229.34 188.00 226.69 187.97 224.03 C 187.71 220.79 187.71 216.21 191.98 215.85 C 194.02 216.12 196.17 217.62 195.96 219.92 C 196.04 225.30 196.04 230.70 195.95 236.08 C 196.01 238.58 193.41 240.37 191.06 240.00 C 138.36 240.00 85.65 240.00 32.95 240.00 C 30.64 240.35 27.96 238.66 28.05 236.15 C 27.91 225.77 28.06 215.39 27.98 205.02 C 27.82 202.44 28.89 200.05 29.69 197.66 C 38.08 172.73 46.36 147.75 54.80 122.83 C 55.29 120.51 57.78 119.64 59.90 120.04 C 63.23 121.53 62.81 125.18 61.61 128.02 C 68.14 127.98 74.68 128.01 81.21 127.99 C 85.17 128.00 89.12 128.01 93.07 127.99 C 94.88 122.67 96.65 117.34 98.43 112.01 C 92.34 111.99 86.26 112.00 80.17 112.01 C 74.27 111.91 68.35 112.19 62.46 111.85 C 58.67 110.39 59.59 103.78 63.86 104.05 C 89.24 103.93 114.62 104.04 140.00 104.00 C 139.94 97.98 140.11 91.97 139.94 85.96 C 137.08 82.49 133.45 79.69 130.24 76.53 C 120.38 80.17 108.77 81.86 99.04 76.94 C 91.21 73.24 86.04 65.71 82.90 57.89 C 78.20 46.20 76.51 33.53 76.01 21.02 M 84.00 23.99 C 84.49 31.04 85.37 38.08 87.03 44.96 C 89.06 53.13 91.98 61.76 98.63 67.37 C 105.35 72.90 114.86 72.69 122.84 70.50 C 122.86 70.26 122.89 69.77 122.91 69.52 C 115.59 62.36 108.01 55.45 100.69 48.29 C 98.65 46.45 99.58 42.79 102.09 41.89 C 103.75 41.14 105.59 41.89 106.76 43.15 C 114.46 50.44 122.15 57.76 129.86 65.04 C 131.96 57.71 133.01 49.42 129.59 42.31 C 126.59 36.06 120.27 32.31 114.06 29.84 C 104.46 26.20 94.20 24.66 84.00 23.99 M 173.07 30.23 C 166.90 32.76 160.69 36.68 157.92 43.02 C 154.88 50.01 155.97 57.98 157.94 65.11 C 166.09 57.56 173.97 49.72 182.20 42.28 C 185.75 39.74 190.33 45.13 187.26 48.20 C 179.67 55.71 171.73 62.87 164.13 70.36 C 171.13 72.24 179.00 72.98 185.68 69.63 C 191.64 66.67 195.31 60.69 197.72 54.72 C 201.52 44.92 203.05 34.41 203.75 23.98 C 193.34 24.83 182.84 26.38 173.07 30.23 M 101.44 128.00 C 111.96 128.00 122.48 128.01 132.99 127.99 C 134.80 122.67 136.57 117.34 138.35 112.01 C 127.84 111.98 117.34 112.02 106.84 111.99 C 104.98 117.30 103.25 122.66 101.44 128.00 M 141.44 128.00 C 151.96 128.00 162.48 128.01 172.99 127.99 C 174.80 122.67 176.57 117.34 178.35 112.01 C 167.84 111.98 157.33 112.01 146.82 111.99 C 144.99 117.32 143.24 122.66 141.44 128.00 M 181.44 128.00 C 191.99 128.00 202.53 128.01 213.07 127.99 C 214.85 122.67 216.59 117.34 218.35 112.01 C 207.85 111.98 197.34 112.03 186.84 111.98 C 184.98 117.30 183.25 122.66 181.44 128.00 M 53.49 151.99 C 63.99 152.00 74.49 152.01 84.99 151.99 C 85.71 149.89 86.42 147.79 87.10 145.68 C 88.20 142.46 89.28 139.24 90.35 136.01 C 87.95 136.00 85.55 136.00 83.16 136.02 C 75.05 135.97 66.94 136.02 58.83 135.99 C 57.00 141.31 55.26 146.66 53.49 151.99 M 93.44 152.00 C 103.96 152.00 114.48 152.01 125.00 151.99 C 126.79 146.67 128.57 141.34 130.35 136.01 C 119.85 135.97 109.35 136.04 98.86 135.97 C 96.97 141.28 95.26 146.66 93.44 152.00 M 133.44 152.00 C 143.96 152.00 154.48 152.01 164.99 151.99 C 166.79 146.67 168.57 141.34 170.35 136.01 C 159.85 135.97 149.35 136.03 138.85 135.98 C 136.97 141.29 135.25 146.66 133.44 152.00 M 173.44 152.00 C 183.99 152.00 194.53 152.01 205.07 151.99 C 206.84 146.67 208.60 141.34 210.35 136.01 C 199.84 135.98 189.34 136.02 178.83 135.99 C 176.99 141.31 175.24 146.66 173.44 152.00 M 45.49 176.00 C 55.99 176.00 66.49 176.01 76.99 175.99 C 78.79 170.67 80.57 165.34 82.35 160.01 C 71.84 159.98 61.33 160.01 50.82 160.00 C 49.01 165.32 47.25 170.66 45.49 176.00 M 85.46 176.00 C 94.45 175.96 103.44 176.08 112.43 175.94 C 113.95 175.97 115.47 175.99 116.99 176.01 C 118.78 170.68 120.57 165.35 122.35 160.01 C 113.47 159.99 104.59 159.99 95.72 160.01 C 94.10 160.00 92.48 159.98 90.87 159.97 C 88.96 165.28 87.25 170.65 85.46 176.00 M 125.44 176.00 C 135.96 176.00 146.48 176.01 156.99 175.99 C 158.79 170.67 160.57 165.34 162.35 160.01 C 151.84 159.99 141.32 160.01 130.81 160.00 C 129.00 165.33 127.23 170.66 125.44 176.00 M 165.44 176.00 C 175.97 176.00 186.50 176.01 197.03 176.00 C 198.82 170.67 200.58 165.34 202.35 160.01 C 191.84 159.98 181.33 160.02 170.82 159.99 C 168.99 165.31 167.24 170.66 165.44 176.00 M 37.49 200.00 C 47.99 200.00 58.49 200.01 68.99 199.99 C 70.79 194.67 72.57 189.34 74.34 184.01 C 63.85 183.97 53.36 184.04 42.87 183.97 C 40.97 189.28 39.28 194.65 37.49 200.00 M 77.45 200.00 C 87.96 200.00 98.48 200.01 108.99 199.99 C 110.79 194.67 112.57 189.34 114.34 184.01 C 103.84 183.98 93.33 184.01 82.82 184.00 C 80.99 189.32 79.23 194.66 77.45 200.00 M 117.45 200.00 C 127.96 200.00 138.48 200.01 149.00 199.99 C 150.34 196.04 151.65 192.07 152.97 188.12 C 153.43 186.75 153.89 185.38 154.36 184.01 C 146.38 184.05 138.40 183.88 130.43 184.10 C 127.90 183.82 125.35 184.04 122.81 184.01 C 120.99 189.32 119.23 194.66 117.45 200.00 M 161.46 187.99 C 160.12 191.99 158.77 195.99 157.45 200.00 C 167.98 200.00 178.50 200.01 189.03 199.99 C 190.38 196.02 191.68 192.03 193.00 188.05 C 193.45 186.70 193.90 185.36 194.35 184.01 C 183.84 183.98 173.32 184.01 162.81 184.00 C 162.36 185.33 161.91 186.66 161.46 187.99 Z" />
</g>
<g id="#32c9b0ff">
<path fill="#32c9b0" opacity="1.00" d=" M 84.00 23.99 C 94.20 24.66 104.46 26.20 114.06 29.84 C 120.27 32.31 126.59 36.06 129.59 42.31 C 133.01 49.42 131.96 57.71 129.86 65.04 C 122.15 57.76 114.46 50.44 106.76 43.15 C 105.59 41.89 103.75 41.14 102.09 41.89 C 99.58 42.79 98.65 46.45 100.69 48.29 C 108.01 55.45 115.59 62.36 122.91 69.52 C 122.89 69.77 122.86 70.26 122.84 70.50 C 114.86 72.69 105.35 72.90 98.63 67.37 C 91.98 61.76 89.06 53.13 87.03 44.96 C 85.37 38.08 84.49 31.04 84.00 23.99 Z" />
<path fill="#32c9b0" opacity="1.00" d=" M 173.07 30.23 C 182.84 26.38 193.34 24.83 203.75 23.98 C 203.05 34.41 201.52 44.92 197.72 54.72 C 195.31 60.69 191.64 66.67 185.68 69.63 C 179.00 72.98 171.13 72.24 164.13 70.36 C 171.73 62.87 179.67 55.71 187.26 48.20 C 190.33 45.13 185.75 39.74 182.20 42.28 C 173.97 49.72 166.09 57.56 157.94 65.11 C 155.97 57.98 154.88 50.01 157.92 43.02 C 160.69 36.68 166.90 32.76 173.07 30.23 Z" />
</g>
<g id="#0071bcff">
<path fill="#0071bc" opacity="1.00" d=" M 62.46 111.85 C 68.35 112.19 74.27 111.91 80.17 112.01 C 80.24 117.35 80.59 122.68 81.21 127.99 C 74.68 128.01 68.14 127.98 61.61 128.02 C 62.81 125.18 63.23 121.53 59.90 120.04 C 60.59 117.26 61.63 114.59 62.46 111.85 Z" />
<path fill="#0071bc" opacity="1.00" d=" M 53.49 151.99 C 55.26 146.66 57.00 141.31 58.83 135.99 C 66.94 136.02 75.05 135.97 83.16 136.02 C 84.35 139.29 85.64 142.52 87.10 145.68 C 86.42 147.79 85.71 149.89 84.99 151.99 C 74.49 152.01 63.99 152.00 53.49 151.99 Z" />
<path fill="#0071bc" opacity="1.00" d=" M 45.49 176.00 C 47.25 170.66 49.01 165.32 50.82 160.00 C 61.33 160.01 71.84 159.98 82.35 160.01 C 80.57 165.34 78.79 170.67 76.99 175.99 C 66.49 176.01 55.99 176.00 45.49 176.00 Z" />
<path fill="#0071bc" opacity="1.00" d=" M 85.46 176.00 C 87.25 170.65 88.96 165.28 90.87 159.97 C 92.48 159.98 94.10 160.00 95.72 160.01 C 100.57 166.04 106.42 171.11 112.43 175.94 C 103.44 176.08 94.45 175.96 85.46 176.00 Z" />
<path fill="#0071bc" opacity="1.00" d=" M 37.49 200.00 C 39.28 194.65 40.97 189.28 42.87 183.97 C 53.36 184.04 63.85 183.97 74.34 184.01 C 72.57 189.34 70.79 194.67 68.99 199.99 C 58.49 200.01 47.99 200.00 37.49 200.00 Z" />
<path fill="#0071bc" opacity="1.00" d=" M 77.45 200.00 C 79.23 194.66 80.99 189.32 82.82 184.00 C 93.33 184.01 103.84 183.98 114.34 184.01 C 112.57 189.34 110.79 194.67 108.99 199.99 C 98.48 200.01 87.96 200.00 77.45 200.00 Z" />
<path fill="#0071bc" opacity="1.00" d=" M 117.45 200.00 C 119.23 194.66 120.99 189.32 122.81 184.01 C 125.35 184.04 127.90 183.82 130.43 184.10 C 137.59 186.96 145.34 187.71 152.97 188.12 C 151.65 192.07 150.34 196.04 149.00 199.99 C 138.48 200.01 127.96 200.00 117.45 200.00 Z" />
<path fill="#0071bc" opacity="1.00" d=" M 161.46 187.99 C 171.98 188.02 182.49 187.93 193.00 188.05 C 191.68 192.03 190.38 196.02 189.03 199.99 C 178.50 200.01 167.98 200.00 157.45 200.00 C 158.77 195.99 160.12 191.99 161.46 187.99 Z" />
</g>
<g id="#229ce0ff">
<path fill="#229ce0" opacity="1.00" d=" M 80.17 112.01 C 86.26 112.00 92.34 111.99 98.43 112.01 C 96.65 117.34 94.88 122.67 93.07 127.99 C 89.12 128.01 85.17 128.00 81.21 127.99 C 80.59 122.68 80.24 117.35 80.17 112.01 Z" />
<path fill="#229ce0" opacity="1.00" d=" M 101.44 128.00 C 103.25 122.66 104.98 117.30 106.84 111.99 C 117.34 112.02 127.84 111.98 138.35 112.01 C 136.57 117.34 134.80 122.67 132.99 127.99 C 122.48 128.01 111.96 128.00 101.44 128.00 Z" />
<path fill="#229ce0" opacity="1.00" d=" M 141.44 128.00 C 143.24 122.66 144.99 117.32 146.82 111.99 C 157.33 112.01 167.84 111.98 178.35 112.01 C 176.57 117.34 174.80 122.67 172.99 127.99 C 162.48 128.01 151.96 128.00 141.44 128.00 Z" />
<path fill="#229ce0" opacity="1.00" d=" M 181.44 128.00 C 183.25 122.66 184.98 117.30 186.84 111.98 C 197.34 112.03 207.85 111.98 218.35 112.01 C 216.59 117.34 214.85 122.67 213.07 127.99 C 202.53 128.01 191.99 128.00 181.44 128.00 Z" />
<path fill="#229ce0" opacity="1.00" d=" M 83.16 136.02 C 85.55 136.00 87.95 136.00 90.35 136.01 C 89.28 139.24 88.20 142.46 87.10 145.68 C 85.64 142.52 84.35 139.29 83.16 136.02 Z" />
<path fill="#229ce0" opacity="1.00" d=" M 93.44 152.00 C 95.26 146.66 96.97 141.28 98.86 135.97 C 109.35 136.04 119.85 135.97 130.35 136.01 C 128.57 141.34 126.79 146.67 125.00 151.99 C 114.48 152.01 103.96 152.00 93.44 152.00 Z" />
<path fill="#229ce0" opacity="1.00" d=" M 133.44 152.00 C 135.25 146.66 136.97 141.29 138.85 135.98 C 149.35 136.03 159.85 135.97 170.35 136.01 C 168.57 141.34 166.79 146.67 164.99 151.99 C 154.48 152.01 143.96 152.00 133.44 152.00 Z" />
<path fill="#229ce0" opacity="1.00" d=" M 173.44 152.00 C 175.24 146.66 176.99 141.31 178.83 135.99 C 189.34 136.02 199.84 135.98 210.35 136.01 C 208.60 141.34 206.84 146.67 205.07 151.99 C 194.53 152.01 183.99 152.00 173.44 152.00 Z" />
<path fill="#229ce0" opacity="1.00" d=" M 95.72 160.01 C 104.59 159.99 113.47 159.99 122.35 160.01 C 120.57 165.35 118.78 170.68 116.99 176.01 C 115.47 175.99 113.95 175.97 112.43 175.94 C 106.42 171.11 100.57 166.04 95.72 160.01 Z" />
<path fill="#229ce0" opacity="1.00" d=" M 125.44 176.00 C 127.23 170.66 129.00 165.33 130.81 160.00 C 141.32 160.01 151.84 159.99 162.35 160.01 C 160.57 165.34 158.79 170.67 156.99 175.99 C 146.48 176.01 135.96 176.00 125.44 176.00 Z" />
<path fill="#229ce0" opacity="1.00" d=" M 165.44 176.00 C 167.24 170.66 168.99 165.31 170.82 159.99 C 181.33 160.02 191.84 159.98 202.35 160.01 C 200.58 165.34 198.82 170.67 197.03 176.00 C 186.50 176.01 175.97 176.00 165.44 176.00 Z" />
<path fill="#229ce0" opacity="1.00" d=" M 130.43 184.10 C 138.40 183.88 146.38 184.05 154.36 184.01 C 153.89 185.38 153.43 186.75 152.97 188.12 C 145.34 187.71 137.59 186.96 130.43 184.10 Z" />
<path fill="#229ce0" opacity="1.00" d=" M 161.46 187.99 C 161.91 186.66 162.36 185.33 162.81 184.00 C 173.32 184.01 183.84 183.98 194.35 184.01 C 193.90 185.36 193.45 186.70 193.00 188.05 C 182.49 187.93 171.98 188.02 161.46 187.99 Z" />
</g>
<g id="#d19762ff">
<path fill="#d19762" opacity="1.00" d=" M 36.00 208.00 C 41.48 208.00 46.96 208.00 52.45 208.01 C 56.19 214.96 62.91 220.03 70.35 222.48 C 75.72 224.28 81.45 223.98 87.04 224.00 C 120.68 224.01 154.33 223.95 187.97 224.03 C 188.00 226.69 188.01 229.34 188.00 232.00 C 137.33 232.00 86.67 232.00 36.00 232.00 C 36.00 224.00 36.00 216.00 36.00 208.00 Z" />
</g>
<g id="#e5b789ff">
<path fill="#e5b789" opacity="1.00" d=" M 52.45 208.01 C 98.96 207.97 145.48 208.05 192.00 207.97 C 192.00 210.59 192.01 213.22 191.98 215.85 C 187.71 216.21 187.71 220.79 187.97 224.03 C 154.33 223.95 120.68 224.01 87.04 224.00 C 81.45 223.98 75.72 224.28 70.35 222.48 C 62.91 220.03 56.19 214.96 52.45 208.01 Z" />
</g>
</svg>
