<?xml version="1.0" encoding="iso-8859-1"?>
<!-- Uploaded to: SVG Repo, www.svgrepo.com, Generator: SVG Repo Mixer Tools -->
<!DOCTYPE svg PUBLIC "-//W3C//DTD SVG 1.1//EN" "http://www.w3.org/Graphics/SVG/1.1/DTD/svg11.dtd">
<svg height="800px" width="800px" version="1.1" id="Capa_1" xmlns="http://www.w3.org/2000/svg" xmlns:xlink="http://www.w3.org/1999/xlink" 
	 viewBox="0 0 297.5 297.5" xml:space="preserve">
<g>
	<g id="XMLID_42_">
		<g>
			<polygon style="fill:#9EA584;" points="103.89,243.651 87.05,260.491 87.05,226.821 			"/>
			<polygon style="fill:#9EA584;" points="131.08,270.841 97.41,270.841 114.24,254.011 			"/>
			<polygon style="fill:#9EA584;" points="141.43,226.821 141.43,260.491 124.6,243.651 			"/>
			<polygon style="fill:#9EA584;" points="131.08,216.461 114.24,233.301 97.41,216.461 			"/>
			<polygon style="fill:#ACAB42;" points="172.91,243.651 156.07,260.491 156.07,226.821 			"/>
			<polygon style="fill:#ACAB42;" points="200.1,270.841 166.43,270.841 183.26,254.011 			"/>
			<polygon style="fill:#ACAB42;" points="210.45,226.821 210.45,260.491 193.62,243.651 			"/>
			<polygon style="fill:#ACAB42;" points="200.1,216.461 183.26,233.301 166.43,216.461 			"/>
			<polygon style="fill:#DB9D3C;" points="172.91,174.631 156.07,191.471 156.07,157.801 			"/>
			<polygon style="fill:#DB9D3C;" points="200.1,201.821 166.43,201.821 183.26,184.991 			"/>
			<polygon style="fill:#DB9D3C;" points="210.45,157.801 210.45,191.471 193.62,174.631 			"/>
			<polygon style="fill:#DB9D3C;" points="200.1,147.441 183.26,164.281 166.43,147.441 			"/>
			<path style="fill:#D5BA2F;" d="M276.34,94.821v172.89h-13.6v-162.1c0-5.77-4.68-10.46-10.46-10.46H45.22
				c-5.77,0-10.46,4.69-10.46,10.46v162.1H21.17V94.821l127.58-63.79L276.34,94.821z"/>
			<path d="M297.25,88.361v189.8c0,5.78-4.68,10.46-10.45,10.46h-34.52c-5.77,0-10.45-4.68-10.45-10.46v-162.09H55.68v162.09
				c0,5.78-4.68,10.46-10.46,10.46H10.71c-5.77,0-10.46-4.68-10.46-10.46v-189.8c0-3.96,2.24-7.59,5.78-9.36l138.05-69.02
				c2.94-1.47,6.41-1.47,9.35,0l138.04,69.02C295.02,80.771,297.25,84.401,297.25,88.361z M276.34,267.711V94.821l-127.59-63.79
				L21.17,94.821v172.89h13.59v-162.1c0-5.77,4.69-10.46,10.46-10.46h207.06c5.78,0,10.46,4.69,10.46,10.46v162.1H276.34z"/>
			<path d="M225.09,140.121v138.04c0,4.05-3.27,7.33-7.32,7.33H79.73c-4.04,0-7.32-3.28-7.32-7.33v-69.02
				c0-4.04,3.28-7.32,7.32-7.32h61.7v-61.7c0-4.04,3.28-7.32,7.32-7.32h69.02C221.82,132.801,225.09,136.081,225.09,140.121z
				 M210.45,260.491v-33.67l-16.83,16.83L210.45,260.491z M210.45,191.471v-33.67l-16.83,16.83L210.45,191.471z M183.26,164.281
				l16.84-16.84h-33.67L183.26,164.281z M183.26,233.301l16.84-16.84h-33.67L183.26,233.301z M166.43,201.821h33.67l-16.84-16.83
				L166.43,201.821z M166.43,270.841h33.67l-16.84-16.83L166.43,270.841z M156.07,191.471l16.84-16.84l-16.84-16.83V191.471z
				 M156.07,260.491l16.84-16.84l-16.84-16.83V260.491z M141.43,260.491v-33.67l-16.83,16.83L141.43,260.491z M114.24,233.301
				l16.84-16.84H97.41L114.24,233.301z M97.41,270.841h33.67l-16.84-16.83L97.41,270.841z M87.05,260.491l16.84-16.84l-16.84-16.83
				V260.491z"/>
		</g>
		<g>
		</g>
	</g>
</g>
</svg>